<svg width="1406" height="286" viewBox="0 0 1406 286" fill="none" xmlns="http://www.w3.org/2000/svg">
<path d="M5.49716 153.371C4.5767 153.371 3.78835 153.047 3.1321 152.399C2.48438 151.751 2.16477 150.967 2.1733 150.047C2.16477 149.143 2.48438 148.372 3.1321 147.733C3.78835 147.085 4.5767 146.761 5.49716 146.761C6.36648 146.761 7.13352 147.085 7.7983 147.733C8.47159 148.372 8.8125 149.143 8.82102 150.047C8.8125 150.661 8.65057 151.219 8.33523 151.722C8.02841 152.224 7.62358 152.625 7.12074 152.923C6.62642 153.222 6.08523 153.371 5.49716 153.371ZM30.2823 153.371C29.3619 153.371 28.5735 153.047 27.9173 152.399C27.2695 151.751 26.9499 150.967 26.9585 150.047C26.9499 149.143 27.2695 148.372 27.9173 147.733C28.5735 147.085 29.3619 146.761 30.2823 146.761C31.1516 146.761 31.9187 147.085 32.5835 147.733C33.2567 148.372 33.5977 149.143 33.6062 150.047C33.5977 150.661 33.4357 151.219 33.1204 151.722C32.8136 152.224 32.4087 152.625 31.9059 152.923C31.4116 153.222 30.8704 153.371 30.2823 153.371ZM55.0675 153.371C54.147 153.371 53.3587 153.047 52.7024 152.399C52.0547 151.751 51.7351 150.967 51.7436 150.047C51.7351 149.143 52.0547 148.372 52.7024 147.733C53.3587 147.085 54.147 146.761 55.0675 146.761C55.9368 146.761 56.7038 147.085 57.3686 147.733C58.0419 148.372 58.3828 149.143 58.3913 150.047C58.3828 150.661 58.2209 151.219 57.9055 151.722C57.5987 152.224 57.1939 152.625 56.6911 152.923C56.1967 153.222 55.6555 153.371 55.0675 153.371ZM79.8526 153.371C78.9322 153.371 78.1438 153.047 77.4876 152.399C76.8398 151.751 76.5202 150.967 76.5288 150.047C76.5202 149.143 76.8398 148.372 77.4876 147.733C78.1438 147.085 78.9322 146.761 79.8526 146.761C80.7219 146.761 81.489 147.085 82.1538 147.733C82.8271 148.372 83.168 149.143 83.1765 150.047C83.168 150.661 83.006 151.219 82.6907 151.722C82.3839 152.224 81.979 152.625 81.4762 152.923C80.9819 153.222 80.4407 153.371 79.8526 153.371ZM104.638 153.371C103.717 153.371 102.929 153.047 102.273 152.399C101.625 151.751 101.305 150.967 101.314 150.047C101.305 149.143 101.625 148.372 102.273 147.733C102.929 147.085 103.717 146.761 104.638 146.761C105.507 146.761 106.274 147.085 106.939 147.733C107.612 148.372 107.953 149.143 107.962 150.047C107.953 150.661 107.791 151.219 107.476 151.722C107.169 152.224 106.764 152.625 106.261 152.923C105.767 153.222 105.226 153.371 104.638 153.371ZM129.423 153.371C128.502 153.371 127.714 153.047 127.058 152.399C126.41 151.751 126.091 150.967 126.099 150.047C126.091 149.143 126.41 148.372 127.058 147.733C127.714 147.085 128.502 146.761 129.423 146.761C130.292 146.761 131.059 147.085 131.724 147.733C132.397 148.372 132.738 149.143 132.747 150.047C132.738 150.661 132.576 151.219 132.261 151.722C131.954 152.224 131.549 152.625 131.047 152.923C130.552 153.222 130.011 153.371 129.423 153.371ZM154.208 153.371C153.288 153.371 152.499 153.047 151.843 152.399C151.195 151.751 150.876 150.967 150.884 150.047C150.876 149.143 151.195 148.372 151.843 147.733C152.499 147.085 153.288 146.761 154.208 146.761C155.077 146.761 155.844 147.085 156.509 147.733C157.183 148.372 157.523 149.143 157.532 150.047C157.523 150.661 157.362 151.219 157.046 151.722C156.739 152.224 156.335 152.625 155.832 152.923C155.337 153.222 154.796 153.371 154.208 153.371ZM5.49716 197.371C4.5767 197.371 3.78835 197.047 3.1321 196.399C2.48438 195.751 2.16477 194.967 2.1733 194.047C2.16477 193.143 2.48438 192.372 3.1321 191.733C3.78835 191.085 4.5767 190.761 5.49716 190.761C6.36648 190.761 7.13352 191.085 7.7983 191.733C8.47159 192.372 8.8125 193.143 8.82102 194.047C8.8125 194.661 8.65057 195.219 8.33523 195.722C8.02841 196.224 7.62358 196.625 7.12074 196.923C6.62642 197.222 6.08523 197.371 5.49716 197.371ZM30.2823 197.371C29.3619 197.371 28.5735 197.047 27.9173 196.399C27.2695 195.751 26.9499 194.967 26.9585 194.047C26.9499 193.143 27.2695 192.372 27.9173 191.733C28.5735 191.085 29.3619 190.761 30.2823 190.761C31.1516 190.761 31.9187 191.085 32.5835 191.733C33.2567 192.372 33.5977 193.143 33.6062 194.047C33.5977 194.661 33.4357 195.219 33.1204 195.722C32.8136 196.224 32.4087 196.625 31.9059 196.923C31.4116 197.222 30.8704 197.371 30.2823 197.371ZM55.0675 197.371C54.147 197.371 53.3587 197.047 52.7024 196.399C52.0547 195.751 51.7351 194.967 51.7436 194.047C51.7351 193.143 52.0547 192.372 52.7024 191.733C53.3587 191.085 54.147 190.761 55.0675 190.761C55.9368 190.761 56.7038 191.085 57.3686 191.733C58.0419 192.372 58.3828 193.143 58.3913 194.047C58.3828 194.661 58.2209 195.219 57.9055 195.722C57.5987 196.224 57.1939 196.625 56.6911 196.923C56.1967 197.222 55.6555 197.371 55.0675 197.371ZM79.8526 197.371C78.9322 197.371 78.1438 197.047 77.4876 196.399C76.8398 195.751 76.5202 194.967 76.5288 194.047C76.5202 193.143 76.8398 192.372 77.4876 191.733C78.1438 191.085 78.9322 190.761 79.8526 190.761C80.7219 190.761 81.489 191.085 82.1538 191.733C82.8271 192.372 83.168 193.143 83.1765 194.047C83.168 194.661 83.006 195.219 82.6907 195.722C82.3839 196.224 81.979 196.625 81.4762 196.923C80.9819 197.222 80.4407 197.371 79.8526 197.371ZM104.638 197.371C103.717 197.371 102.929 197.047 102.273 196.399C101.625 195.751 101.305 194.967 101.314 194.047C101.305 193.143 101.625 192.372 102.273 191.733C102.929 191.085 103.717 190.761 104.638 190.761C105.507 190.761 106.274 191.085 106.939 191.733C107.612 192.372 107.953 193.143 107.962 194.047C107.953 194.661 107.791 195.219 107.476 195.722C107.169 196.224 106.764 196.625 106.261 196.923C105.767 197.222 105.226 197.371 104.638 197.371ZM129.423 197.371C128.502 197.371 127.714 197.047 127.058 196.399C126.41 195.751 126.091 194.967 126.099 194.047C126.091 193.143 126.41 192.372 127.058 191.733C127.714 191.085 128.502 190.761 129.423 190.761C130.292 190.761 131.059 191.085 131.724 191.733C132.397 192.372 132.738 193.143 132.747 194.047C132.738 194.661 132.576 195.219 132.261 195.722C131.954 196.224 131.549 196.625 131.047 196.923C130.552 197.222 130.011 197.371 129.423 197.371ZM154.208 197.371C153.288 197.371 152.499 197.047 151.843 196.399C151.195 195.751 150.876 194.967 150.884 194.047C150.876 193.143 151.195 192.372 151.843 191.733C152.499 191.085 153.288 190.761 154.208 190.761C155.077 190.761 155.844 191.085 156.509 191.733C157.183 192.372 157.523 193.143 157.532 194.047C157.523 194.661 157.362 195.219 157.046 195.722C156.739 196.224 156.335 196.625 155.832 196.923C155.337 197.222 154.796 197.371 154.208 197.371ZM5.49716 241.371C4.5767 241.371 3.78835 241.047 3.1321 240.399C2.48438 239.751 2.16477 238.967 2.1733 238.047C2.16477 237.143 2.48438 236.372 3.1321 235.733C3.78835 235.085 4.5767 234.761 5.49716 234.761C6.36648 234.761 7.13352 235.085 7.7983 235.733C8.47159 236.372 8.8125 237.143 8.82102 238.047C8.8125 238.661 8.65057 239.219 8.33523 239.722C8.02841 240.224 7.62358 240.625 7.12074 240.923C6.62642 241.222 6.08523 241.371 5.49716 241.371ZM30.2823 241.371C29.3619 241.371 28.5735 241.047 27.9173 240.399C27.2695 239.751 26.9499 238.967 26.9585 238.047C26.9499 237.143 27.2695 236.372 27.9173 235.733C28.5735 235.085 29.3619 234.761 30.2823 234.761C31.1516 234.761 31.9187 235.085 32.5835 235.733C33.2567 236.372 33.5977 237.143 33.6062 238.047C33.5977 238.661 33.4357 239.219 33.1204 239.722C32.8136 240.224 32.4087 240.625 31.9059 240.923C31.4116 241.222 30.8704 241.371 30.2823 241.371ZM55.0675 241.371C54.147 241.371 53.3587 241.047 52.7024 240.399C52.0547 239.751 51.7351 238.967 51.7436 238.047C51.7351 237.143 52.0547 236.372 52.7024 235.733C53.3587 235.085 54.147 234.761 55.0675 234.761C55.9368 234.761 56.7038 235.085 57.3686 235.733C58.0419 236.372 58.3828 237.143 58.3913 238.047C58.3828 238.661 58.2209 239.219 57.9055 239.722C57.5987 240.224 57.1939 240.625 56.6911 240.923C56.1967 241.222 55.6555 241.371 55.0675 241.371ZM79.8526 241.371C78.9322 241.371 78.1438 241.047 77.4876 240.399C76.8398 239.751 76.5202 238.967 76.5288 238.047C76.5202 237.143 76.8398 236.372 77.4876 235.733C78.1438 235.085 78.9322 234.761 79.8526 234.761C80.7219 234.761 81.489 235.085 82.1538 235.733C82.8271 236.372 83.168 237.143 83.1765 238.047C83.168 238.661 83.006 239.219 82.6907 239.722C82.3839 240.224 81.979 240.625 81.4762 240.923C80.9819 241.222 80.4407 241.371 79.8526 241.371ZM104.638 241.371C103.717 241.371 102.929 241.047 102.273 240.399C101.625 239.751 101.305 238.967 101.314 238.047C101.305 237.143 101.625 236.372 102.273 235.733C102.929 235.085 103.717 234.761 104.638 234.761C105.507 234.761 106.274 235.085 106.939 235.733C107.612 236.372 107.953 237.143 107.962 238.047C107.953 238.661 107.791 239.219 107.476 239.722C107.169 240.224 106.764 240.625 106.261 240.923C105.767 241.222 105.226 241.371 104.638 241.371ZM129.423 241.371C128.502 241.371 127.714 241.047 127.058 240.399C126.41 239.751 126.091 238.967 126.099 238.047C126.091 237.143 126.41 236.372 127.058 235.733C127.714 235.085 128.502 234.761 129.423 234.761C130.292 234.761 131.059 235.085 131.724 235.733C132.397 236.372 132.738 237.143 132.747 238.047C132.738 238.661 132.576 239.219 132.261 239.722C131.954 240.224 131.549 240.625 131.047 240.923C130.552 241.222 130.011 241.371 129.423 241.371ZM154.208 241.371C153.288 241.371 152.499 241.047 151.843 240.399C151.195 239.751 150.876 238.967 150.884 238.047C150.876 237.143 151.195 236.372 151.843 235.733C152.499 235.085 153.288 234.761 154.208 234.761C155.077 234.761 155.844 235.085 156.509 235.733C157.183 236.372 157.523 237.143 157.532 238.047C157.523 238.661 157.362 239.219 157.046 239.722C156.739 240.224 156.335 240.625 155.832 240.923C155.337 241.222 154.796 241.371 154.208 241.371ZM5.49716 285.371C4.5767 285.371 3.78835 285.047 3.1321 284.399C2.48438 283.751 2.16477 282.967 2.1733 282.047C2.16477 281.143 2.48438 280.372 3.1321 279.733C3.78835 279.085 4.5767 278.761 5.49716 278.761C6.36648 278.761 7.13352 279.085 7.7983 279.733C8.47159 280.372 8.8125 281.143 8.82102 282.047C8.8125 282.661 8.65057 283.219 8.33523 283.722C8.02841 284.224 7.62358 284.625 7.12074 284.923C6.62642 285.222 6.08523 285.371 5.49716 285.371ZM30.2823 285.371C29.3619 285.371 28.5735 285.047 27.9173 284.399C27.2695 283.751 26.9499 282.967 26.9585 282.047C26.9499 281.143 27.2695 280.372 27.9173 279.733C28.5735 279.085 29.3619 278.761 30.2823 278.761C31.1516 278.761 31.9187 279.085 32.5835 279.733C33.2567 280.372 33.5977 281.143 33.6062 282.047C33.5977 282.661 33.4357 283.219 33.1204 283.722C32.8136 284.224 32.4087 284.625 31.9059 284.923C31.4116 285.222 30.8704 285.371 30.2823 285.371ZM55.0675 285.371C54.147 285.371 53.3587 285.047 52.7024 284.399C52.0547 283.751 51.7351 282.967 51.7436 282.047C51.7351 281.143 52.0547 280.372 52.7024 279.733C53.3587 279.085 54.147 278.761 55.0675 278.761C55.9368 278.761 56.7038 279.085 57.3686 279.733C58.0419 280.372 58.3828 281.143 58.3913 282.047C58.3828 282.661 58.2209 283.219 57.9055 283.722C57.5987 284.224 57.1939 284.625 56.6911 284.923C56.1967 285.222 55.6555 285.371 55.0675 285.371ZM79.8526 285.371C78.9322 285.371 78.1438 285.047 77.4876 284.399C76.8398 283.751 76.5202 282.967 76.5288 282.047C76.5202 281.143 76.8398 280.372 77.4876 279.733C78.1438 279.085 78.9322 278.761 79.8526 278.761C80.7219 278.761 81.489 279.085 82.1538 279.733C82.8271 280.372 83.168 281.143 83.1765 282.047C83.168 282.661 83.006 283.219 82.6907 283.722C82.3839 284.224 81.979 284.625 81.4762 284.923C80.9819 285.222 80.4407 285.371 79.8526 285.371ZM104.638 285.371C103.717 285.371 102.929 285.047 102.273 284.399C101.625 283.751 101.305 282.967 101.314 282.047C101.305 281.143 101.625 280.372 102.273 279.733C102.929 279.085 103.717 278.761 104.638 278.761C105.507 278.761 106.274 279.085 106.939 279.733C107.612 280.372 107.953 281.143 107.962 282.047C107.953 282.661 107.791 283.219 107.476 283.722C107.169 284.224 106.764 284.625 106.261 284.923C105.767 285.222 105.226 285.371 104.638 285.371ZM129.423 285.371C128.502 285.371 127.714 285.047 127.058 284.399C126.41 283.751 126.091 282.967 126.099 282.047C126.091 281.143 126.41 280.372 127.058 279.733C127.714 279.085 128.502 278.761 129.423 278.761C130.292 278.761 131.059 279.085 131.724 279.733C132.397 280.372 132.738 281.143 132.747 282.047C132.738 282.661 132.576 283.219 132.261 283.722C131.954 284.224 131.549 284.625 131.047 284.923C130.552 285.222 130.011 285.371 129.423 285.371ZM154.208 285.371C153.288 285.371 152.499 285.047 151.843 284.399C151.195 283.751 150.876 282.967 150.884 282.047C150.876 281.143 151.195 280.372 151.843 279.733C152.499 279.085 153.288 278.761 154.208 278.761C155.077 278.761 155.844 279.085 156.509 279.733C157.183 280.372 157.523 281.143 157.532 282.047C157.523 282.661 157.362 283.219 157.046 283.722C156.739 284.224 156.335 284.625 155.832 284.923C155.337 285.222 154.796 285.371 154.208 285.371Z" fill="white"/>
<circle cx="117.5" cy="127.5" r="97.5" fill="#0AEB06"/>
<circle cx="112.5" cy="132.5" r="97.5" fill="white"/>
<path d="M451.054 35.206C450.543 35.206 450.105 35.026 449.74 34.6662C449.38 34.3063 449.203 33.8707 449.207 33.3594C449.203 32.8575 449.38 32.429 449.74 32.0739C450.105 31.714 450.543 31.5341 451.054 31.5341C451.537 31.5341 451.963 31.714 452.332 32.0739C452.706 32.429 452.896 32.8575 452.901 33.3594C452.896 33.7003 452.806 34.0104 452.631 34.2898C452.46 34.5691 452.235 34.7917 451.956 34.9574C451.681 35.1231 451.381 35.206 451.054 35.206ZM464.824 35.206C464.312 35.206 463.874 35.026 463.51 34.6662C463.15 34.3063 462.972 33.8707 462.977 33.3594C462.972 32.8575 463.15 32.429 463.51 32.0739C463.874 31.714 464.312 31.5341 464.824 31.5341C465.306 31.5341 465.733 31.714 466.102 32.0739C466.476 32.429 466.665 32.8575 466.67 33.3594C466.665 33.7003 466.575 34.0104 466.4 34.2898C466.23 34.5691 466.005 34.7917 465.725 34.9574C465.451 35.1231 465.15 35.206 464.824 35.206ZM478.593 35.206C478.082 35.206 477.644 35.026 477.279 34.6662C476.919 34.3063 476.742 33.8707 476.746 33.3594C476.742 32.8575 476.919 32.429 477.279 32.0739C477.644 31.714 478.082 31.5341 478.593 31.5341C479.076 31.5341 479.502 31.714 479.871 32.0739C480.246 32.429 480.435 32.8575 480.44 33.3594C480.435 33.7003 480.345 34.0104 480.17 34.2898C479.999 34.5691 479.774 34.7917 479.495 34.9574C479.22 35.1231 478.92 35.206 478.593 35.206ZM492.363 35.206C491.851 35.206 491.413 35.026 491.049 34.6662C490.689 34.3063 490.511 33.8707 490.516 33.3594C490.511 32.8575 490.689 32.429 491.049 32.0739C491.413 31.714 491.851 31.5341 492.363 31.5341C492.846 31.5341 493.272 31.714 493.641 32.0739C494.015 32.429 494.204 32.8575 494.209 33.3594C494.204 33.7003 494.114 34.0104 493.939 34.2898C493.769 34.5691 493.544 34.7917 493.265 34.9574C492.99 35.1231 492.689 35.206 492.363 35.206ZM506.132 35.206C505.621 35.206 505.183 35.026 504.818 34.6662C504.458 34.3063 504.281 33.8707 504.286 33.3594C504.281 32.8575 504.458 32.429 504.818 32.0739C505.183 31.714 505.621 31.5341 506.132 31.5341C506.615 31.5341 507.041 31.714 507.411 32.0739C507.785 32.429 507.974 32.8575 507.979 33.3594C507.974 33.7003 507.884 34.0104 507.709 34.2898C507.538 34.5691 507.313 34.7917 507.034 34.9574C506.759 35.1231 506.459 35.206 506.132 35.206ZM519.902 35.206C519.39 35.206 518.952 35.026 518.588 34.6662C518.228 34.3063 518.05 33.8707 518.055 33.3594C518.05 32.8575 518.228 32.429 518.588 32.0739C518.952 31.714 519.39 31.5341 519.902 31.5341C520.385 31.5341 520.811 31.714 521.18 32.0739C521.554 32.429 521.743 32.8575 521.748 33.3594C521.743 33.7003 521.654 34.0104 521.478 34.2898C521.308 34.5691 521.083 34.7917 520.804 34.9574C520.529 35.1231 520.228 35.206 519.902 35.206ZM533.671 35.206C533.16 35.206 532.722 35.026 532.357 34.6662C531.997 34.3063 531.82 33.8707 531.825 33.3594C531.82 32.8575 531.997 32.429 532.357 32.0739C532.722 31.714 533.16 31.5341 533.671 31.5341C534.154 31.5341 534.58 31.714 534.95 32.0739C535.324 32.429 535.513 32.8575 535.518 33.3594C535.513 33.7003 535.423 34.0104 535.248 34.2898C535.077 34.5691 534.853 34.7917 534.573 34.9574C534.299 35.1231 533.998 35.206 533.671 35.206ZM451.054 59.206C450.543 59.206 450.105 59.026 449.74 58.6662C449.38 58.3063 449.203 57.8707 449.207 57.3594C449.203 56.8575 449.38 56.429 449.74 56.0739C450.105 55.714 450.543 55.5341 451.054 55.5341C451.537 55.5341 451.963 55.714 452.332 56.0739C452.706 56.429 452.896 56.8575 452.901 57.3594C452.896 57.7003 452.806 58.0104 452.631 58.2898C452.46 58.5691 452.235 58.7917 451.956 58.9574C451.681 59.1231 451.381 59.206 451.054 59.206ZM464.824 59.206C464.312 59.206 463.874 59.026 463.51 58.6662C463.15 58.3063 462.972 57.8707 462.977 57.3594C462.972 56.8575 463.15 56.429 463.51 56.0739C463.874 55.714 464.312 55.5341 464.824 55.5341C465.306 55.5341 465.733 55.714 466.102 56.0739C466.476 56.429 466.665 56.8575 466.67 57.3594C466.665 57.7003 466.575 58.0104 466.4 58.2898C466.23 58.5691 466.005 58.7917 465.725 58.9574C465.451 59.1231 465.15 59.206 464.824 59.206ZM478.593 59.206C478.082 59.206 477.644 59.026 477.279 58.6662C476.919 58.3063 476.742 57.8707 476.746 57.3594C476.742 56.8575 476.919 56.429 477.279 56.0739C477.644 55.714 478.082 55.5341 478.593 55.5341C479.076 55.5341 479.502 55.714 479.871 56.0739C480.246 56.429 480.435 56.8575 480.44 57.3594C480.435 57.7003 480.345 58.0104 480.17 58.2898C479.999 58.5691 479.774 58.7917 479.495 58.9574C479.22 59.1231 478.92 59.206 478.593 59.206ZM492.363 59.206C491.851 59.206 491.413 59.026 491.049 58.6662C490.689 58.3063 490.511 57.8707 490.516 57.3594C490.511 56.8575 490.689 56.429 491.049 56.0739C491.413 55.714 491.851 55.5341 492.363 55.5341C492.846 55.5341 493.272 55.714 493.641 56.0739C494.015 56.429 494.204 56.8575 494.209 57.3594C494.204 57.7003 494.114 58.0104 493.939 58.2898C493.769 58.5691 493.544 58.7917 493.265 58.9574C492.99 59.1231 492.689 59.206 492.363 59.206ZM506.132 59.206C505.621 59.206 505.183 59.026 504.818 58.6662C504.458 58.3063 504.281 57.8707 504.286 57.3594C504.281 56.8575 504.458 56.429 504.818 56.0739C505.183 55.714 505.621 55.5341 506.132 55.5341C506.615 55.5341 507.041 55.714 507.411 56.0739C507.785 56.429 507.974 56.8575 507.979 57.3594C507.974 57.7003 507.884 58.0104 507.709 58.2898C507.538 58.5691 507.313 58.7917 507.034 58.9574C506.759 59.1231 506.459 59.206 506.132 59.206ZM519.902 59.206C519.39 59.206 518.952 59.026 518.588 58.6662C518.228 58.3063 518.05 57.8707 518.055 57.3594C518.05 56.8575 518.228 56.429 518.588 56.0739C518.952 55.714 519.39 55.5341 519.902 55.5341C520.385 55.5341 520.811 55.714 521.18 56.0739C521.554 56.429 521.743 56.8575 521.748 57.3594C521.743 57.7003 521.654 58.0104 521.478 58.2898C521.308 58.5691 521.083 58.7917 520.804 58.9574C520.529 59.1231 520.228 59.206 519.902 59.206ZM533.671 59.206C533.16 59.206 532.722 59.026 532.357 58.6662C531.997 58.3063 531.82 57.8707 531.825 57.3594C531.82 56.8575 531.997 56.429 532.357 56.0739C532.722 55.714 533.16 55.5341 533.671 55.5341C534.154 55.5341 534.58 55.714 534.95 56.0739C535.324 56.429 535.513 56.8575 535.518 57.3594C535.513 57.7003 535.423 58.0104 535.248 58.2898C535.077 58.5691 534.853 58.7917 534.573 58.9574C534.299 59.1231 533.998 59.206 533.671 59.206ZM451.054 83.206C450.543 83.206 450.105 83.026 449.74 82.6662C449.38 82.3063 449.203 81.8707 449.207 81.3594C449.203 80.8575 449.38 80.429 449.74 80.0739C450.105 79.714 450.543 79.5341 451.054 79.5341C451.537 79.5341 451.963 79.714 452.332 80.0739C452.706 80.429 452.896 80.8575 452.901 81.3594C452.896 81.7003 452.806 82.0104 452.631 82.2898C452.46 82.5691 452.235 82.7917 451.956 82.9574C451.681 83.1231 451.381 83.206 451.054 83.206ZM464.824 83.206C464.312 83.206 463.874 83.026 463.51 82.6662C463.15 82.3063 462.972 81.8707 462.977 81.3594C462.972 80.8575 463.15 80.429 463.51 80.0739C463.874 79.714 464.312 79.5341 464.824 79.5341C465.306 79.5341 465.733 79.714 466.102 80.0739C466.476 80.429 466.665 80.8575 466.67 81.3594C466.665 81.7003 466.575 82.0104 466.4 82.2898C466.23 82.5691 466.005 82.7917 465.725 82.9574C465.451 83.1231 465.15 83.206 464.824 83.206ZM478.593 83.206C478.082 83.206 477.644 83.026 477.279 82.6662C476.919 82.3063 476.742 81.8707 476.746 81.3594C476.742 80.8575 476.919 80.429 477.279 80.0739C477.644 79.714 478.082 79.5341 478.593 79.5341C479.076 79.5341 479.502 79.714 479.871 80.0739C480.246 80.429 480.435 80.8575 480.44 81.3594C480.435 81.7003 480.345 82.0104 480.17 82.2898C479.999 82.5691 479.774 82.7917 479.495 82.9574C479.22 83.1231 478.92 83.206 478.593 83.206ZM492.363 83.206C491.851 83.206 491.413 83.026 491.049 82.6662C490.689 82.3063 490.511 81.8707 490.516 81.3594C490.511 80.8575 490.689 80.429 491.049 80.0739C491.413 79.714 491.851 79.5341 492.363 79.5341C492.846 79.5341 493.272 79.714 493.641 80.0739C494.015 80.429 494.204 80.8575 494.209 81.3594C494.204 81.7003 494.114 82.0104 493.939 82.2898C493.769 82.5691 493.544 82.7917 493.265 82.9574C492.99 83.1231 492.689 83.206 492.363 83.206ZM506.132 83.206C505.621 83.206 505.183 83.026 504.818 82.6662C504.458 82.3063 504.281 81.8707 504.286 81.3594C504.281 80.8575 504.458 80.429 504.818 80.0739C505.183 79.714 505.621 79.5341 506.132 79.5341C506.615 79.5341 507.041 79.714 507.411 80.0739C507.785 80.429 507.974 80.8575 507.979 81.3594C507.974 81.7003 507.884 82.0104 507.709 82.2898C507.538 82.5691 507.313 82.7917 507.034 82.9574C506.759 83.1231 506.459 83.206 506.132 83.206ZM519.902 83.206C519.39 83.206 518.952 83.026 518.588 82.6662C518.228 82.3063 518.05 81.8707 518.055 81.3594C518.05 80.8575 518.228 80.429 518.588 80.0739C518.952 79.714 519.39 79.5341 519.902 79.5341C520.385 79.5341 520.811 79.714 521.18 80.0739C521.554 80.429 521.743 80.8575 521.748 81.3594C521.743 81.7003 521.654 82.0104 521.478 82.2898C521.308 82.5691 521.083 82.7917 520.804 82.9574C520.529 83.1231 520.228 83.206 519.902 83.206ZM533.671 83.206C533.16 83.206 532.722 83.026 532.357 82.6662C531.997 82.3063 531.82 81.8707 531.825 81.3594C531.82 80.8575 531.997 80.429 532.357 80.0739C532.722 79.714 533.16 79.5341 533.671 79.5341C534.154 79.5341 534.58 79.714 534.95 80.0739C535.324 80.429 535.513 80.8575 535.518 81.3594C535.513 81.7003 535.423 82.0104 535.248 82.2898C535.077 82.5691 534.853 82.7917 534.573 82.9574C534.299 83.1231 533.998 83.206 533.671 83.206ZM451.054 107.206C450.543 107.206 450.105 107.026 449.74 106.666C449.38 106.306 449.203 105.871 449.207 105.359C449.203 104.857 449.38 104.429 449.74 104.074C450.105 103.714 450.543 103.534 451.054 103.534C451.537 103.534 451.963 103.714 452.332 104.074C452.706 104.429 452.896 104.857 452.901 105.359C452.896 105.7 452.806 106.01 452.631 106.29C452.46 106.569 452.235 106.792 451.956 106.957C451.681 107.123 451.381 107.206 451.054 107.206ZM464.824 107.206C464.312 107.206 463.874 107.026 463.51 106.666C463.15 106.306 462.972 105.871 462.977 105.359C462.972 104.857 463.15 104.429 463.51 104.074C463.874 103.714 464.312 103.534 464.824 103.534C465.306 103.534 465.733 103.714 466.102 104.074C466.476 104.429 466.665 104.857 466.67 105.359C466.665 105.7 466.575 106.01 466.4 106.29C466.23 106.569 466.005 106.792 465.725 106.957C465.451 107.123 465.15 107.206 464.824 107.206ZM478.593 107.206C478.082 107.206 477.644 107.026 477.279 106.666C476.919 106.306 476.742 105.871 476.746 105.359C476.742 104.857 476.919 104.429 477.279 104.074C477.644 103.714 478.082 103.534 478.593 103.534C479.076 103.534 479.502 103.714 479.871 104.074C480.246 104.429 480.435 104.857 480.44 105.359C480.435 105.7 480.345 106.01 480.17 106.29C479.999 106.569 479.774 106.792 479.495 106.957C479.22 107.123 478.92 107.206 478.593 107.206ZM492.363 107.206C491.851 107.206 491.413 107.026 491.049 106.666C490.689 106.306 490.511 105.871 490.516 105.359C490.511 104.857 490.689 104.429 491.049 104.074C491.413 103.714 491.851 103.534 492.363 103.534C492.846 103.534 493.272 103.714 493.641 104.074C494.015 104.429 494.204 104.857 494.209 105.359C494.204 105.7 494.114 106.01 493.939 106.29C493.769 106.569 493.544 106.792 493.265 106.957C492.99 107.123 492.689 107.206 492.363 107.206ZM506.132 107.206C505.621 107.206 505.183 107.026 504.818 106.666C504.458 106.306 504.281 105.871 504.286 105.359C504.281 104.857 504.458 104.429 504.818 104.074C505.183 103.714 505.621 103.534 506.132 103.534C506.615 103.534 507.041 103.714 507.411 104.074C507.785 104.429 507.974 104.857 507.979 105.359C507.974 105.7 507.884 106.01 507.709 106.29C507.538 106.569 507.313 106.792 507.034 106.957C506.759 107.123 506.459 107.206 506.132 107.206ZM519.902 107.206C519.39 107.206 518.952 107.026 518.588 106.666C518.228 106.306 518.05 105.871 518.055 105.359C518.05 104.857 518.228 104.429 518.588 104.074C518.952 103.714 519.39 103.534 519.902 103.534C520.385 103.534 520.811 103.714 521.18 104.074C521.554 104.429 521.743 104.857 521.748 105.359C521.743 105.7 521.654 106.01 521.478 106.29C521.308 106.569 521.083 106.792 520.804 106.957C520.529 107.123 520.228 107.206 519.902 107.206ZM533.671 107.206C533.16 107.206 532.722 107.026 532.357 106.666C531.997 106.306 531.82 105.871 531.825 105.359C531.82 104.857 531.997 104.429 532.357 104.074C532.722 103.714 533.16 103.534 533.671 103.534C534.154 103.534 534.58 103.714 534.95 104.074C535.324 104.429 535.513 104.857 535.518 105.359C535.513 105.7 535.423 106.01 535.248 106.29C535.077 106.569 534.853 106.792 534.573 106.957C534.299 107.123 533.998 107.206 533.671 107.206Z" fill="white"/>
<path d="M1206.5 35.3707C1205.58 35.3707 1204.79 35.0469 1204.13 34.3991C1203.48 33.7514 1203.16 32.9673 1203.17 32.0469C1203.16 31.1435 1203.48 30.3722 1204.13 29.733C1204.79 29.0852 1205.58 28.7614 1206.5 28.7614C1207.37 28.7614 1208.13 29.0852 1208.8 29.733C1209.47 30.3722 1209.81 31.1435 1209.82 32.0469C1209.81 32.6605 1209.65 33.2187 1209.34 33.7216C1209.03 34.2244 1208.62 34.625 1208.12 34.9233C1207.63 35.2216 1207.09 35.3707 1206.5 35.3707ZM1231.28 35.3707C1230.36 35.3707 1229.57 35.0469 1228.92 34.3991C1228.27 33.7514 1227.95 32.9673 1227.96 32.0469C1227.95 31.1435 1228.27 30.3722 1228.92 29.733C1229.57 29.0852 1230.36 28.7614 1231.28 28.7614C1232.15 28.7614 1232.92 29.0852 1233.58 29.733C1234.26 30.3722 1234.6 31.1435 1234.61 32.0469C1234.6 32.6605 1234.44 33.2187 1234.12 33.7216C1233.81 34.2244 1233.41 34.625 1232.91 34.9233C1232.41 35.2216 1231.87 35.3707 1231.28 35.3707ZM1256.07 35.3707C1255.15 35.3707 1254.36 35.0469 1253.7 34.3991C1253.05 33.7514 1252.74 32.9673 1252.74 32.0469C1252.74 31.1435 1253.05 30.3722 1253.7 29.733C1254.36 29.0852 1255.15 28.7614 1256.07 28.7614C1256.94 28.7614 1257.7 29.0852 1258.37 29.733C1259.04 30.3722 1259.38 31.1435 1259.39 32.0469C1259.38 32.6605 1259.22 33.2187 1258.91 33.7216C1258.6 34.2244 1258.19 34.625 1257.69 34.9233C1257.2 35.2216 1256.66 35.3707 1256.07 35.3707ZM1280.85 35.3707C1279.93 35.3707 1279.14 35.0469 1278.49 34.3991C1277.84 33.7514 1277.52 32.9673 1277.53 32.0469C1277.52 31.1435 1277.84 30.3722 1278.49 29.733C1279.14 29.0852 1279.93 28.7614 1280.85 28.7614C1281.72 28.7614 1282.49 29.0852 1283.15 29.733C1283.83 30.3722 1284.17 31.1435 1284.18 32.0469C1284.17 32.6605 1284.01 33.2187 1283.69 33.7216C1283.38 34.2244 1282.98 34.625 1282.48 34.9233C1281.98 35.2216 1281.44 35.3707 1280.85 35.3707ZM1305.64 35.3707C1304.72 35.3707 1303.93 35.0469 1303.27 34.3991C1302.63 33.7514 1302.31 32.9673 1302.31 32.0469C1302.31 31.1435 1302.63 30.3722 1303.27 29.733C1303.93 29.0852 1304.72 28.7614 1305.64 28.7614C1306.51 28.7614 1307.27 29.0852 1307.94 29.733C1308.61 30.3722 1308.95 31.1435 1308.96 32.0469C1308.95 32.6605 1308.79 33.2187 1308.48 33.7216C1308.17 34.2244 1307.76 34.625 1307.26 34.9233C1306.77 35.2216 1306.23 35.3707 1305.64 35.3707ZM1330.42 35.3707C1329.5 35.3707 1328.71 35.0469 1328.06 34.3991C1327.41 33.7514 1327.09 32.9673 1327.1 32.0469C1327.09 31.1435 1327.41 30.3722 1328.06 29.733C1328.71 29.0852 1329.5 28.7614 1330.42 28.7614C1331.29 28.7614 1332.06 29.0852 1332.72 29.733C1333.4 30.3722 1333.74 31.1435 1333.75 32.0469C1333.74 32.6605 1333.58 33.2187 1333.26 33.7216C1332.95 34.2244 1332.55 34.625 1332.05 34.9233C1331.55 35.2216 1331.01 35.3707 1330.42 35.3707ZM1355.21 35.3707C1354.29 35.3707 1353.5 35.0469 1352.84 34.3991C1352.2 33.7514 1351.88 32.9673 1351.88 32.0469C1351.88 31.1435 1352.2 30.3722 1352.84 29.733C1353.5 29.0852 1354.29 28.7614 1355.21 28.7614C1356.08 28.7614 1356.84 29.0852 1357.51 29.733C1358.18 30.3722 1358.52 31.1435 1358.53 32.0469C1358.52 32.6605 1358.36 33.2187 1358.05 33.7216C1357.74 34.2244 1357.33 34.625 1356.83 34.9233C1356.34 35.2216 1355.8 35.3707 1355.21 35.3707ZM1206.5 79.3707C1205.58 79.3707 1204.79 79.0469 1204.13 78.3991C1203.48 77.7514 1203.16 76.9673 1203.17 76.0469C1203.16 75.1435 1203.48 74.3722 1204.13 73.733C1204.79 73.0852 1205.58 72.7614 1206.5 72.7614C1207.37 72.7614 1208.13 73.0852 1208.8 73.733C1209.47 74.3722 1209.81 75.1435 1209.82 76.0469C1209.81 76.6605 1209.65 77.2187 1209.34 77.7216C1209.03 78.2244 1208.62 78.625 1208.12 78.9233C1207.63 79.2216 1207.09 79.3707 1206.5 79.3707ZM1231.28 79.3707C1230.36 79.3707 1229.57 79.0469 1228.92 78.3991C1228.27 77.7514 1227.95 76.9673 1227.96 76.0469C1227.95 75.1435 1228.27 74.3722 1228.92 73.733C1229.57 73.0852 1230.36 72.7614 1231.28 72.7614C1232.15 72.7614 1232.92 73.0852 1233.58 73.733C1234.26 74.3722 1234.6 75.1435 1234.61 76.0469C1234.6 76.6605 1234.44 77.2187 1234.12 77.7216C1233.81 78.2244 1233.41 78.625 1232.91 78.9233C1232.41 79.2216 1231.87 79.3707 1231.28 79.3707ZM1256.07 79.3707C1255.15 79.3707 1254.36 79.0469 1253.7 78.3991C1253.05 77.7514 1252.74 76.9673 1252.74 76.0469C1252.74 75.1435 1253.05 74.3722 1253.7 73.733C1254.36 73.0852 1255.15 72.7614 1256.07 72.7614C1256.94 72.7614 1257.7 73.0852 1258.37 73.733C1259.04 74.3722 1259.38 75.1435 1259.39 76.0469C1259.38 76.6605 1259.22 77.2187 1258.91 77.7216C1258.6 78.2244 1258.19 78.625 1257.69 78.9233C1257.2 79.2216 1256.66 79.3707 1256.07 79.3707ZM1280.85 79.3707C1279.93 79.3707 1279.14 79.0469 1278.49 78.3991C1277.84 77.7514 1277.52 76.9673 1277.53 76.0469C1277.52 75.1435 1277.84 74.3722 1278.49 73.733C1279.14 73.0852 1279.93 72.7614 1280.85 72.7614C1281.72 72.7614 1282.49 73.0852 1283.15 73.733C1283.83 74.3722 1284.17 75.1435 1284.18 76.0469C1284.17 76.6605 1284.01 77.2187 1283.69 77.7216C1283.38 78.2244 1282.98 78.625 1282.48 78.9233C1281.98 79.2216 1281.44 79.3707 1280.85 79.3707ZM1305.64 79.3707C1304.72 79.3707 1303.93 79.0469 1303.27 78.3991C1302.63 77.7514 1302.31 76.9673 1302.31 76.0469C1302.31 75.1435 1302.63 74.3722 1303.27 73.733C1303.93 73.0852 1304.72 72.7614 1305.64 72.7614C1306.51 72.7614 1307.27 73.0852 1307.94 73.733C1308.61 74.3722 1308.95 75.1435 1308.96 76.0469C1308.95 76.6605 1308.79 77.2187 1308.48 77.7216C1308.17 78.2244 1307.76 78.625 1307.26 78.9233C1306.77 79.2216 1306.23 79.3707 1305.64 79.3707ZM1330.42 79.3707C1329.5 79.3707 1328.71 79.0469 1328.06 78.3991C1327.41 77.7514 1327.09 76.9673 1327.1 76.0469C1327.09 75.1435 1327.41 74.3722 1328.06 73.733C1328.71 73.0852 1329.5 72.7614 1330.42 72.7614C1331.29 72.7614 1332.06 73.0852 1332.72 73.733C1333.4 74.3722 1333.74 75.1435 1333.75 76.0469C1333.74 76.6605 1333.58 77.2187 1333.26 77.7216C1332.95 78.2244 1332.55 78.625 1332.05 78.9233C1331.55 79.2216 1331.01 79.3707 1330.42 79.3707ZM1355.21 79.3707C1354.29 79.3707 1353.5 79.0469 1352.84 78.3991C1352.2 77.7514 1351.88 76.9673 1351.88 76.0469C1351.88 75.1435 1352.2 74.3722 1352.84 73.733C1353.5 73.0852 1354.29 72.7614 1355.21 72.7614C1356.08 72.7614 1356.84 73.0852 1357.51 73.733C1358.18 74.3722 1358.52 75.1435 1358.53 76.0469C1358.52 76.6605 1358.36 77.2187 1358.05 77.7216C1357.74 78.2244 1357.33 78.625 1356.83 78.9233C1356.34 79.2216 1355.8 79.3707 1355.21 79.3707ZM1206.5 123.371C1205.58 123.371 1204.79 123.047 1204.13 122.399C1203.48 121.751 1203.16 120.967 1203.17 120.047C1203.16 119.143 1203.48 118.372 1204.13 117.733C1204.79 117.085 1205.58 116.761 1206.5 116.761C1207.37 116.761 1208.13 117.085 1208.8 117.733C1209.47 118.372 1209.81 119.143 1209.82 120.047C1209.81 120.661 1209.65 121.219 1209.34 121.722C1209.03 122.224 1208.62 122.625 1208.12 122.923C1207.63 123.222 1207.09 123.371 1206.5 123.371ZM1231.28 123.371C1230.36 123.371 1229.57 123.047 1228.92 122.399C1228.27 121.751 1227.95 120.967 1227.96 120.047C1227.95 119.143 1228.27 118.372 1228.92 117.733C1229.57 117.085 1230.36 116.761 1231.28 116.761C1232.15 116.761 1232.92 117.085 1233.58 117.733C1234.26 118.372 1234.6 119.143 1234.61 120.047C1234.6 120.661 1234.44 121.219 1234.12 121.722C1233.81 122.224 1233.41 122.625 1232.91 122.923C1232.41 123.222 1231.87 123.371 1231.28 123.371ZM1256.07 123.371C1255.15 123.371 1254.36 123.047 1253.7 122.399C1253.05 121.751 1252.74 120.967 1252.74 120.047C1252.74 119.143 1253.05 118.372 1253.7 117.733C1254.36 117.085 1255.15 116.761 1256.07 116.761C1256.94 116.761 1257.7 117.085 1258.37 117.733C1259.04 118.372 1259.38 119.143 1259.39 120.047C1259.38 120.661 1259.22 121.219 1258.91 121.722C1258.6 122.224 1258.19 122.625 1257.69 122.923C1257.2 123.222 1256.66 123.371 1256.07 123.371ZM1280.85 123.371C1279.93 123.371 1279.14 123.047 1278.49 122.399C1277.84 121.751 1277.52 120.967 1277.53 120.047C1277.52 119.143 1277.84 118.372 1278.49 117.733C1279.14 117.085 1279.93 116.761 1280.85 116.761C1281.72 116.761 1282.49 117.085 1283.15 117.733C1283.83 118.372 1284.17 119.143 1284.18 120.047C1284.17 120.661 1284.01 121.219 1283.69 121.722C1283.38 122.224 1282.98 122.625 1282.48 122.923C1281.98 123.222 1281.44 123.371 1280.85 123.371ZM1305.64 123.371C1304.72 123.371 1303.93 123.047 1303.27 122.399C1302.63 121.751 1302.31 120.967 1302.31 120.047C1302.31 119.143 1302.63 118.372 1303.27 117.733C1303.93 117.085 1304.72 116.761 1305.64 116.761C1306.51 116.761 1307.27 117.085 1307.94 117.733C1308.61 118.372 1308.95 119.143 1308.96 120.047C1308.95 120.661 1308.79 121.219 1308.48 121.722C1308.17 122.224 1307.76 122.625 1307.26 122.923C1306.77 123.222 1306.23 123.371 1305.64 123.371ZM1330.42 123.371C1329.5 123.371 1328.71 123.047 1328.06 122.399C1327.41 121.751 1327.09 120.967 1327.1 120.047C1327.09 119.143 1327.41 118.372 1328.06 117.733C1328.71 117.085 1329.5 116.761 1330.42 116.761C1331.29 116.761 1332.06 117.085 1332.72 117.733C1333.4 118.372 1333.74 119.143 1333.75 120.047C1333.74 120.661 1333.58 121.219 1333.26 121.722C1332.95 122.224 1332.55 122.625 1332.05 122.923C1331.55 123.222 1331.01 123.371 1330.42 123.371ZM1355.21 123.371C1354.29 123.371 1353.5 123.047 1352.84 122.399C1352.2 121.751 1351.88 120.967 1351.88 120.047C1351.88 119.143 1352.2 118.372 1352.84 117.733C1353.5 117.085 1354.29 116.761 1355.21 116.761C1356.08 116.761 1356.84 117.085 1357.51 117.733C1358.18 118.372 1358.52 119.143 1358.53 120.047C1358.52 120.661 1358.36 121.219 1358.05 121.722C1357.74 122.224 1357.33 122.625 1356.83 122.923C1356.34 123.222 1355.8 123.371 1355.21 123.371ZM1206.5 167.371C1205.58 167.371 1204.79 167.047 1204.13 166.399C1203.48 165.751 1203.16 164.967 1203.17 164.047C1203.16 163.143 1203.48 162.372 1204.13 161.733C1204.79 161.085 1205.58 160.761 1206.5 160.761C1207.37 160.761 1208.13 161.085 1208.8 161.733C1209.47 162.372 1209.81 163.143 1209.82 164.047C1209.81 164.661 1209.65 165.219 1209.34 165.722C1209.03 166.224 1208.62 166.625 1208.12 166.923C1207.63 167.222 1207.09 167.371 1206.5 167.371ZM1231.28 167.371C1230.36 167.371 1229.57 167.047 1228.92 166.399C1228.27 165.751 1227.95 164.967 1227.96 164.047C1227.95 163.143 1228.27 162.372 1228.92 161.733C1229.57 161.085 1230.36 160.761 1231.28 160.761C1232.15 160.761 1232.92 161.085 1233.58 161.733C1234.26 162.372 1234.6 163.143 1234.61 164.047C1234.6 164.661 1234.44 165.219 1234.12 165.722C1233.81 166.224 1233.41 166.625 1232.91 166.923C1232.41 167.222 1231.87 167.371 1231.28 167.371ZM1256.07 167.371C1255.15 167.371 1254.36 167.047 1253.7 166.399C1253.05 165.751 1252.74 164.967 1252.74 164.047C1252.74 163.143 1253.05 162.372 1253.7 161.733C1254.36 161.085 1255.15 160.761 1256.07 160.761C1256.94 160.761 1257.7 161.085 1258.37 161.733C1259.04 162.372 1259.38 163.143 1259.39 164.047C1259.38 164.661 1259.22 165.219 1258.91 165.722C1258.6 166.224 1258.19 166.625 1257.69 166.923C1257.2 167.222 1256.66 167.371 1256.07 167.371ZM1280.85 167.371C1279.93 167.371 1279.14 167.047 1278.49 166.399C1277.84 165.751 1277.52 164.967 1277.53 164.047C1277.52 163.143 1277.84 162.372 1278.49 161.733C1279.14 161.085 1279.93 160.761 1280.85 160.761C1281.72 160.761 1282.49 161.085 1283.15 161.733C1283.83 162.372 1284.17 163.143 1284.18 164.047C1284.17 164.661 1284.01 165.219 1283.69 165.722C1283.38 166.224 1282.98 166.625 1282.48 166.923C1281.98 167.222 1281.44 167.371 1280.85 167.371ZM1305.64 167.371C1304.72 167.371 1303.93 167.047 1303.27 166.399C1302.63 165.751 1302.31 164.967 1302.31 164.047C1302.31 163.143 1302.63 162.372 1303.27 161.733C1303.93 161.085 1304.72 160.761 1305.64 160.761C1306.51 160.761 1307.27 161.085 1307.94 161.733C1308.61 162.372 1308.95 163.143 1308.96 164.047C1308.95 164.661 1308.79 165.219 1308.48 165.722C1308.17 166.224 1307.76 166.625 1307.26 166.923C1306.77 167.222 1306.23 167.371 1305.64 167.371ZM1330.42 167.371C1329.5 167.371 1328.71 167.047 1328.06 166.399C1327.41 165.751 1327.09 164.967 1327.1 164.047C1327.09 163.143 1327.41 162.372 1328.06 161.733C1328.71 161.085 1329.5 160.761 1330.42 160.761C1331.29 160.761 1332.06 161.085 1332.72 161.733C1333.4 162.372 1333.74 163.143 1333.75 164.047C1333.74 164.661 1333.58 165.219 1333.26 165.722C1332.95 166.224 1332.55 166.625 1332.05 166.923C1331.55 167.222 1331.01 167.371 1330.42 167.371ZM1355.21 167.371C1354.29 167.371 1353.5 167.047 1352.84 166.399C1352.2 165.751 1351.88 164.967 1351.88 164.047C1351.88 163.143 1352.2 162.372 1352.84 161.733C1353.5 161.085 1354.29 160.761 1355.21 160.761C1356.08 160.761 1356.84 161.085 1357.51 161.733C1358.18 162.372 1358.52 163.143 1358.53 164.047C1358.52 164.661 1358.36 165.219 1358.05 165.722C1357.74 166.224 1357.33 166.625 1356.83 166.923C1356.34 167.222 1355.8 167.371 1355.21 167.371Z" fill="white"/>
</svg>
