<svg width="285" height="256" viewBox="0 0 285 256" fill="none" xmlns="http://www.w3.org/2000/svg">
<path d="M5.49716 123.371C4.5767 123.371 3.78835 123.047 3.1321 122.399C2.48438 121.751 2.16477 120.967 2.1733 120.047C2.16477 119.143 2.48438 118.372 3.1321 117.733C3.78835 117.085 4.5767 116.761 5.49716 116.761C6.36648 116.761 7.13352 117.085 7.7983 117.733C8.47159 118.372 8.8125 119.143 8.82102 120.047C8.8125 120.661 8.65057 121.219 8.33523 121.722C8.02841 122.224 7.62358 122.625 7.12074 122.923C6.62642 123.222 6.08523 123.371 5.49716 123.371ZM30.2823 123.371C29.3619 123.371 28.5735 123.047 27.9173 122.399C27.2695 121.751 26.9499 120.967 26.9585 120.047C26.9499 119.143 27.2695 118.372 27.9173 117.733C28.5735 117.085 29.3619 116.761 30.2823 116.761C31.1516 116.761 31.9187 117.085 32.5835 117.733C33.2567 118.372 33.5977 119.143 33.6062 120.047C33.5977 120.661 33.4357 121.219 33.1204 121.722C32.8136 122.224 32.4087 122.625 31.9059 122.923C31.4116 123.222 30.8704 123.371 30.2823 123.371ZM55.0675 123.371C54.147 123.371 53.3587 123.047 52.7024 122.399C52.0547 121.751 51.7351 120.967 51.7436 120.047C51.7351 119.143 52.0547 118.372 52.7024 117.733C53.3587 117.085 54.147 116.761 55.0675 116.761C55.9368 116.761 56.7038 117.085 57.3686 117.733C58.0419 118.372 58.3828 119.143 58.3913 120.047C58.3828 120.661 58.2209 121.219 57.9055 121.722C57.5987 122.224 57.1939 122.625 56.6911 122.923C56.1967 123.222 55.6555 123.371 55.0675 123.371ZM79.8526 123.371C78.9322 123.371 78.1438 123.047 77.4876 122.399C76.8398 121.751 76.5202 120.967 76.5288 120.047C76.5202 119.143 76.8398 118.372 77.4876 117.733C78.1438 117.085 78.9322 116.761 79.8526 116.761C80.7219 116.761 81.489 117.085 82.1538 117.733C82.8271 118.372 83.168 119.143 83.1765 120.047C83.168 120.661 83.006 121.219 82.6907 121.722C82.3839 122.224 81.979 122.625 81.4762 122.923C80.9819 123.222 80.4407 123.371 79.8526 123.371ZM104.638 123.371C103.717 123.371 102.929 123.047 102.273 122.399C101.625 121.751 101.305 120.967 101.314 120.047C101.305 119.143 101.625 118.372 102.273 117.733C102.929 117.085 103.717 116.761 104.638 116.761C105.507 116.761 106.274 117.085 106.939 117.733C107.612 118.372 107.953 119.143 107.962 120.047C107.953 120.661 107.791 121.219 107.476 121.722C107.169 122.224 106.764 122.625 106.261 122.923C105.767 123.222 105.226 123.371 104.638 123.371ZM129.423 123.371C128.502 123.371 127.714 123.047 127.058 122.399C126.41 121.751 126.091 120.967 126.099 120.047C126.091 119.143 126.41 118.372 127.058 117.733C127.714 117.085 128.502 116.761 129.423 116.761C130.292 116.761 131.059 117.085 131.724 117.733C132.397 118.372 132.738 119.143 132.747 120.047C132.738 120.661 132.576 121.219 132.261 121.722C131.954 122.224 131.549 122.625 131.047 122.923C130.552 123.222 130.011 123.371 129.423 123.371ZM154.208 123.371C153.288 123.371 152.499 123.047 151.843 122.399C151.195 121.751 150.876 120.967 150.884 120.047C150.876 119.143 151.195 118.372 151.843 117.733C152.499 117.085 153.288 116.761 154.208 116.761C155.077 116.761 155.844 117.085 156.509 117.733C157.183 118.372 157.523 119.143 157.532 120.047C157.523 120.661 157.362 121.219 157.046 121.722C156.739 122.224 156.335 122.625 155.832 122.923C155.337 123.222 154.796 123.371 154.208 123.371ZM5.49716 167.371C4.5767 167.371 3.78835 167.047 3.1321 166.399C2.48438 165.751 2.16477 164.967 2.1733 164.047C2.16477 163.143 2.48438 162.372 3.1321 161.733C3.78835 161.085 4.5767 160.761 5.49716 160.761C6.36648 160.761 7.13352 161.085 7.7983 161.733C8.47159 162.372 8.8125 163.143 8.82102 164.047C8.8125 164.661 8.65057 165.219 8.33523 165.722C8.02841 166.224 7.62358 166.625 7.12074 166.923C6.62642 167.222 6.08523 167.371 5.49716 167.371ZM30.2823 167.371C29.3619 167.371 28.5735 167.047 27.9173 166.399C27.2695 165.751 26.9499 164.967 26.9585 164.047C26.9499 163.143 27.2695 162.372 27.9173 161.733C28.5735 161.085 29.3619 160.761 30.2823 160.761C31.1516 160.761 31.9187 161.085 32.5835 161.733C33.2567 162.372 33.5977 163.143 33.6062 164.047C33.5977 164.661 33.4357 165.219 33.1204 165.722C32.8136 166.224 32.4087 166.625 31.9059 166.923C31.4116 167.222 30.8704 167.371 30.2823 167.371ZM55.0675 167.371C54.147 167.371 53.3587 167.047 52.7024 166.399C52.0547 165.751 51.7351 164.967 51.7436 164.047C51.7351 163.143 52.0547 162.372 52.7024 161.733C53.3587 161.085 54.147 160.761 55.0675 160.761C55.9368 160.761 56.7038 161.085 57.3686 161.733C58.0419 162.372 58.3828 163.143 58.3913 164.047C58.3828 164.661 58.2209 165.219 57.9055 165.722C57.5987 166.224 57.1939 166.625 56.6911 166.923C56.1967 167.222 55.6555 167.371 55.0675 167.371ZM79.8526 167.371C78.9322 167.371 78.1438 167.047 77.4876 166.399C76.8398 165.751 76.5202 164.967 76.5288 164.047C76.5202 163.143 76.8398 162.372 77.4876 161.733C78.1438 161.085 78.9322 160.761 79.8526 160.761C80.7219 160.761 81.489 161.085 82.1538 161.733C82.8271 162.372 83.168 163.143 83.1765 164.047C83.168 164.661 83.006 165.219 82.6907 165.722C82.3839 166.224 81.979 166.625 81.4762 166.923C80.9819 167.222 80.4407 167.371 79.8526 167.371ZM104.638 167.371C103.717 167.371 102.929 167.047 102.273 166.399C101.625 165.751 101.305 164.967 101.314 164.047C101.305 163.143 101.625 162.372 102.273 161.733C102.929 161.085 103.717 160.761 104.638 160.761C105.507 160.761 106.274 161.085 106.939 161.733C107.612 162.372 107.953 163.143 107.962 164.047C107.953 164.661 107.791 165.219 107.476 165.722C107.169 166.224 106.764 166.625 106.261 166.923C105.767 167.222 105.226 167.371 104.638 167.371ZM129.423 167.371C128.502 167.371 127.714 167.047 127.058 166.399C126.41 165.751 126.091 164.967 126.099 164.047C126.091 163.143 126.41 162.372 127.058 161.733C127.714 161.085 128.502 160.761 129.423 160.761C130.292 160.761 131.059 161.085 131.724 161.733C132.397 162.372 132.738 163.143 132.747 164.047C132.738 164.661 132.576 165.219 132.261 165.722C131.954 166.224 131.549 166.625 131.047 166.923C130.552 167.222 130.011 167.371 129.423 167.371ZM154.208 167.371C153.288 167.371 152.499 167.047 151.843 166.399C151.195 165.751 150.876 164.967 150.884 164.047C150.876 163.143 151.195 162.372 151.843 161.733C152.499 161.085 153.288 160.761 154.208 160.761C155.077 160.761 155.844 161.085 156.509 161.733C157.183 162.372 157.523 163.143 157.532 164.047C157.523 164.661 157.362 165.219 157.046 165.722C156.739 166.224 156.335 166.625 155.832 166.923C155.337 167.222 154.796 167.371 154.208 167.371ZM5.49716 211.371C4.5767 211.371 3.78835 211.047 3.1321 210.399C2.48438 209.751 2.16477 208.967 2.1733 208.047C2.16477 207.143 2.48438 206.372 3.1321 205.733C3.78835 205.085 4.5767 204.761 5.49716 204.761C6.36648 204.761 7.13352 205.085 7.7983 205.733C8.47159 206.372 8.8125 207.143 8.82102 208.047C8.8125 208.661 8.65057 209.219 8.33523 209.722C8.02841 210.224 7.62358 210.625 7.12074 210.923C6.62642 211.222 6.08523 211.371 5.49716 211.371ZM30.2823 211.371C29.3619 211.371 28.5735 211.047 27.9173 210.399C27.2695 209.751 26.9499 208.967 26.9585 208.047C26.9499 207.143 27.2695 206.372 27.9173 205.733C28.5735 205.085 29.3619 204.761 30.2823 204.761C31.1516 204.761 31.9187 205.085 32.5835 205.733C33.2567 206.372 33.5977 207.143 33.6062 208.047C33.5977 208.661 33.4357 209.219 33.1204 209.722C32.8136 210.224 32.4087 210.625 31.9059 210.923C31.4116 211.222 30.8704 211.371 30.2823 211.371ZM55.0675 211.371C54.147 211.371 53.3587 211.047 52.7024 210.399C52.0547 209.751 51.7351 208.967 51.7436 208.047C51.7351 207.143 52.0547 206.372 52.7024 205.733C53.3587 205.085 54.147 204.761 55.0675 204.761C55.9368 204.761 56.7038 205.085 57.3686 205.733C58.0419 206.372 58.3828 207.143 58.3913 208.047C58.3828 208.661 58.2209 209.219 57.9055 209.722C57.5987 210.224 57.1939 210.625 56.6911 210.923C56.1967 211.222 55.6555 211.371 55.0675 211.371ZM79.8526 211.371C78.9322 211.371 78.1438 211.047 77.4876 210.399C76.8398 209.751 76.5202 208.967 76.5288 208.047C76.5202 207.143 76.8398 206.372 77.4876 205.733C78.1438 205.085 78.9322 204.761 79.8526 204.761C80.7219 204.761 81.489 205.085 82.1538 205.733C82.8271 206.372 83.168 207.143 83.1765 208.047C83.168 208.661 83.006 209.219 82.6907 209.722C82.3839 210.224 81.979 210.625 81.4762 210.923C80.9819 211.222 80.4407 211.371 79.8526 211.371ZM104.638 211.371C103.717 211.371 102.929 211.047 102.273 210.399C101.625 209.751 101.305 208.967 101.314 208.047C101.305 207.143 101.625 206.372 102.273 205.733C102.929 205.085 103.717 204.761 104.638 204.761C105.507 204.761 106.274 205.085 106.939 205.733C107.612 206.372 107.953 207.143 107.962 208.047C107.953 208.661 107.791 209.219 107.476 209.722C107.169 210.224 106.764 210.625 106.261 210.923C105.767 211.222 105.226 211.371 104.638 211.371ZM129.423 211.371C128.502 211.371 127.714 211.047 127.058 210.399C126.41 209.751 126.091 208.967 126.099 208.047C126.091 207.143 126.41 206.372 127.058 205.733C127.714 205.085 128.502 204.761 129.423 204.761C130.292 204.761 131.059 205.085 131.724 205.733C132.397 206.372 132.738 207.143 132.747 208.047C132.738 208.661 132.576 209.219 132.261 209.722C131.954 210.224 131.549 210.625 131.047 210.923C130.552 211.222 130.011 211.371 129.423 211.371ZM154.208 211.371C153.288 211.371 152.499 211.047 151.843 210.399C151.195 209.751 150.876 208.967 150.884 208.047C150.876 207.143 151.195 206.372 151.843 205.733C152.499 205.085 153.288 204.761 154.208 204.761C155.077 204.761 155.844 205.085 156.509 205.733C157.183 206.372 157.523 207.143 157.532 208.047C157.523 208.661 157.362 209.219 157.046 209.722C156.739 210.224 156.335 210.625 155.832 210.923C155.337 211.222 154.796 211.371 154.208 211.371ZM5.49716 255.371C4.5767 255.371 3.78835 255.047 3.1321 254.399C2.48438 253.751 2.16477 252.967 2.1733 252.047C2.16477 251.143 2.48438 250.372 3.1321 249.733C3.78835 249.085 4.5767 248.761 5.49716 248.761C6.36648 248.761 7.13352 249.085 7.7983 249.733C8.47159 250.372 8.8125 251.143 8.82102 252.047C8.8125 252.661 8.65057 253.219 8.33523 253.722C8.02841 254.224 7.62358 254.625 7.12074 254.923C6.62642 255.222 6.08523 255.371 5.49716 255.371ZM30.2823 255.371C29.3619 255.371 28.5735 255.047 27.9173 254.399C27.2695 253.751 26.9499 252.967 26.9585 252.047C26.9499 251.143 27.2695 250.372 27.9173 249.733C28.5735 249.085 29.3619 248.761 30.2823 248.761C31.1516 248.761 31.9187 249.085 32.5835 249.733C33.2567 250.372 33.5977 251.143 33.6062 252.047C33.5977 252.661 33.4357 253.219 33.1204 253.722C32.8136 254.224 32.4087 254.625 31.9059 254.923C31.4116 255.222 30.8704 255.371 30.2823 255.371ZM55.0675 255.371C54.147 255.371 53.3587 255.047 52.7024 254.399C52.0547 253.751 51.7351 252.967 51.7436 252.047C51.7351 251.143 52.0547 250.372 52.7024 249.733C53.3587 249.085 54.147 248.761 55.0675 248.761C55.9368 248.761 56.7038 249.085 57.3686 249.733C58.0419 250.372 58.3828 251.143 58.3913 252.047C58.3828 252.661 58.2209 253.219 57.9055 253.722C57.5987 254.224 57.1939 254.625 56.6911 254.923C56.1967 255.222 55.6555 255.371 55.0675 255.371ZM79.8526 255.371C78.9322 255.371 78.1438 255.047 77.4876 254.399C76.8398 253.751 76.5202 252.967 76.5288 252.047C76.5202 251.143 76.8398 250.372 77.4876 249.733C78.1438 249.085 78.9322 248.761 79.8526 248.761C80.7219 248.761 81.489 249.085 82.1538 249.733C82.8271 250.372 83.168 251.143 83.1765 252.047C83.168 252.661 83.006 253.219 82.6907 253.722C82.3839 254.224 81.979 254.625 81.4762 254.923C80.9819 255.222 80.4407 255.371 79.8526 255.371ZM104.638 255.371C103.717 255.371 102.929 255.047 102.273 254.399C101.625 253.751 101.305 252.967 101.314 252.047C101.305 251.143 101.625 250.372 102.273 249.733C102.929 249.085 103.717 248.761 104.638 248.761C105.507 248.761 106.274 249.085 106.939 249.733C107.612 250.372 107.953 251.143 107.962 252.047C107.953 252.661 107.791 253.219 107.476 253.722C107.169 254.224 106.764 254.625 106.261 254.923C105.767 255.222 105.226 255.371 104.638 255.371ZM129.423 255.371C128.502 255.371 127.714 255.047 127.058 254.399C126.41 253.751 126.091 252.967 126.099 252.047C126.091 251.143 126.41 250.372 127.058 249.733C127.714 249.085 128.502 248.761 129.423 248.761C130.292 248.761 131.059 249.085 131.724 249.733C132.397 250.372 132.738 251.143 132.747 252.047C132.738 252.661 132.576 253.219 132.261 253.722C131.954 254.224 131.549 254.625 131.047 254.923C130.552 255.222 130.011 255.371 129.423 255.371ZM154.208 255.371C153.288 255.371 152.499 255.047 151.843 254.399C151.195 253.751 150.876 252.967 150.884 252.047C150.876 251.143 151.195 250.372 151.843 249.733C152.499 249.085 153.288 248.761 154.208 248.761C155.077 248.761 155.844 249.085 156.509 249.733C157.183 250.372 157.523 251.143 157.532 252.047C157.523 252.661 157.362 253.219 157.046 253.722C156.739 254.224 156.335 254.625 155.832 254.923C155.337 255.222 154.796 255.371 154.208 255.371Z" fill="white"/>
<circle cx="117.5" cy="97.5" r="97.5" fill="#0AEB06"/>
<circle cx="112.5" cy="102.5" r="97.5" fill="white"/>
</svg>
