<svg width="87" height="77" viewBox="0 0 87 77" fill="none" xmlns="http://www.w3.org/2000/svg">
<path d="M2.05398 4.20597C1.54261 4.20597 1.10464 4.02604 0.740057 3.66619C0.380208 3.30634 0.202652 2.87074 0.207386 2.35938C0.202652 1.85748 0.380208 1.42898 0.740057 1.07386C1.10464 0.714015 1.54261 0.534091 2.05398 0.534091C2.53693 0.534091 2.96307 0.714015 3.33239 1.07386C3.70644 1.42898 3.89583 1.85748 3.90057 2.35938C3.89583 2.70028 3.80587 3.01042 3.63068 3.28977C3.46023 3.56913 3.23532 3.79167 2.95597 3.95739C2.68134 4.12311 2.38068 4.20597 2.05398 4.20597ZM15.8235 4.20597C15.3121 4.20597 14.8742 4.02604 14.5096 3.66619C14.1497 3.30634 13.9722 2.87074 13.9769 2.35938C13.9722 1.85748 14.1497 1.42898 14.5096 1.07386C14.8742 0.714015 15.3121 0.534091 15.8235 0.534091C16.3065 0.534091 16.7326 0.714015 17.1019 1.07386C17.476 1.42898 17.6654 1.85748 17.6701 2.35938C17.6654 2.70028 17.5754 3.01042 17.4002 3.28977C17.2298 3.56913 17.0049 3.79167 16.7255 3.95739C16.4509 4.12311 16.1502 4.20597 15.8235 4.20597ZM29.593 4.20597C29.0817 4.20597 28.6437 4.02604 28.2791 3.66619C27.9193 3.30634 27.7417 2.87074 27.7464 2.35938C27.7417 1.85748 27.9193 1.42898 28.2791 1.07386C28.6437 0.714015 29.0817 0.534091 29.593 0.534091C30.076 0.534091 30.5021 0.714015 30.8714 1.07386C31.2455 1.42898 31.4349 1.85748 31.4396 2.35938C31.4349 2.70028 31.3449 3.01042 31.1697 3.28977C30.9993 3.56913 30.7744 3.79167 30.495 3.95739C30.2204 4.12311 29.9197 4.20597 29.593 4.20597ZM43.3626 4.20597C42.8512 4.20597 42.4132 4.02604 42.0487 3.66619C41.6888 3.30634 41.5112 2.87074 41.516 2.35938C41.5112 1.85748 41.6888 1.42898 42.0487 1.07386C42.4132 0.714015 42.8512 0.534091 43.3626 0.534091C43.8455 0.534091 44.2717 0.714015 44.641 1.07386C45.015 1.42898 45.2044 1.85748 45.2092 2.35938C45.2044 2.70028 45.1145 3.01042 44.9393 3.28977C44.7688 3.56913 44.5439 3.79167 44.2646 3.95739C43.9899 4.12311 43.6893 4.20597 43.3626 4.20597ZM57.1321 4.20597C56.6207 4.20597 56.1828 4.02604 55.8182 3.66619C55.4583 3.30634 55.2808 2.87074 55.2855 2.35938C55.2808 1.85748 55.4583 1.42898 55.8182 1.07386C56.1828 0.714015 56.6207 0.534091 57.1321 0.534091C57.6151 0.534091 58.0412 0.714015 58.4105 1.07386C58.7846 1.42898 58.974 1.85748 58.9787 2.35938C58.974 2.70028 58.884 3.01042 58.7088 3.28977C58.5384 3.56913 58.3134 3.79167 58.0341 3.95739C57.7595 4.12311 57.4588 4.20597 57.1321 4.20597ZM70.9016 4.20597C70.3903 4.20597 69.9523 4.02604 69.5877 3.66619C69.2279 3.30634 69.0503 2.87074 69.055 2.35938C69.0503 1.85748 69.2279 1.42898 69.5877 1.07386C69.9523 0.714015 70.3903 0.534091 70.9016 0.534091C71.3846 0.534091 71.8107 0.714015 72.18 1.07386C72.5541 1.42898 72.7435 1.85748 72.7482 2.35938C72.7435 2.70028 72.6535 3.01042 72.4783 3.28977C72.3079 3.56913 72.083 3.79167 71.8036 3.95739C71.529 4.12311 71.2283 4.20597 70.9016 4.20597ZM84.6712 4.20597C84.1598 4.20597 83.7218 4.02604 83.3572 3.66619C82.9974 3.30634 82.8198 2.87074 82.8246 2.35938C82.8198 1.85748 82.9974 1.42898 83.3572 1.07386C83.7218 0.714015 84.1598 0.534091 84.6712 0.534091C85.1541 0.534091 85.5803 0.714015 85.9496 1.07386C86.3236 1.42898 86.513 1.85748 86.5178 2.35938C86.513 2.70028 86.4231 3.01042 86.2479 3.28977C86.0774 3.56913 85.8525 3.79167 85.5732 3.95739C85.2985 4.12311 84.9979 4.20597 84.6712 4.20597ZM2.05398 28.206C1.54261 28.206 1.10464 28.026 0.740057 27.6662C0.380208 27.3063 0.202652 26.8707 0.207386 26.3594C0.202652 25.8575 0.380208 25.429 0.740057 25.0739C1.10464 24.714 1.54261 24.5341 2.05398 24.5341C2.53693 24.5341 2.96307 24.714 3.33239 25.0739C3.70644 25.429 3.89583 25.8575 3.90057 26.3594C3.89583 26.7003 3.80587 27.0104 3.63068 27.2898C3.46023 27.5691 3.23532 27.7917 2.95597 27.9574C2.68134 28.1231 2.38068 28.206 2.05398 28.206ZM15.8235 28.206C15.3121 28.206 14.8742 28.026 14.5096 27.6662C14.1497 27.3063 13.9722 26.8707 13.9769 26.3594C13.9722 25.8575 14.1497 25.429 14.5096 25.0739C14.8742 24.714 15.3121 24.5341 15.8235 24.5341C16.3065 24.5341 16.7326 24.714 17.1019 25.0739C17.476 25.429 17.6654 25.8575 17.6701 26.3594C17.6654 26.7003 17.5754 27.0104 17.4002 27.2898C17.2298 27.5691 17.0049 27.7917 16.7255 27.9574C16.4509 28.1231 16.1502 28.206 15.8235 28.206ZM29.593 28.206C29.0817 28.206 28.6437 28.026 28.2791 27.6662C27.9193 27.3063 27.7417 26.8707 27.7464 26.3594C27.7417 25.8575 27.9193 25.429 28.2791 25.0739C28.6437 24.714 29.0817 24.5341 29.593 24.5341C30.076 24.5341 30.5021 24.714 30.8714 25.0739C31.2455 25.429 31.4349 25.8575 31.4396 26.3594C31.4349 26.7003 31.3449 27.0104 31.1697 27.2898C30.9993 27.5691 30.7744 27.7917 30.495 27.9574C30.2204 28.1231 29.9197 28.206 29.593 28.206ZM43.3626 28.206C42.8512 28.206 42.4132 28.026 42.0487 27.6662C41.6888 27.3063 41.5112 26.8707 41.516 26.3594C41.5112 25.8575 41.6888 25.429 42.0487 25.0739C42.4132 24.714 42.8512 24.5341 43.3626 24.5341C43.8455 24.5341 44.2717 24.714 44.641 25.0739C45.015 25.429 45.2044 25.8575 45.2092 26.3594C45.2044 26.7003 45.1145 27.0104 44.9393 27.2898C44.7688 27.5691 44.5439 27.7917 44.2646 27.9574C43.9899 28.1231 43.6893 28.206 43.3626 28.206ZM57.1321 28.206C56.6207 28.206 56.1828 28.026 55.8182 27.6662C55.4583 27.3063 55.2808 26.8707 55.2855 26.3594C55.2808 25.8575 55.4583 25.429 55.8182 25.0739C56.1828 24.714 56.6207 24.5341 57.1321 24.5341C57.6151 24.5341 58.0412 24.714 58.4105 25.0739C58.7846 25.429 58.974 25.8575 58.9787 26.3594C58.974 26.7003 58.884 27.0104 58.7088 27.2898C58.5384 27.5691 58.3134 27.7917 58.0341 27.9574C57.7595 28.1231 57.4588 28.206 57.1321 28.206ZM70.9016 28.206C70.3903 28.206 69.9523 28.026 69.5877 27.6662C69.2279 27.3063 69.0503 26.8707 69.055 26.3594C69.0503 25.8575 69.2279 25.429 69.5877 25.0739C69.9523 24.714 70.3903 24.5341 70.9016 24.5341C71.3846 24.5341 71.8107 24.714 72.18 25.0739C72.5541 25.429 72.7435 25.8575 72.7482 26.3594C72.7435 26.7003 72.6535 27.0104 72.4783 27.2898C72.3079 27.5691 72.083 27.7917 71.8036 27.9574C71.529 28.1231 71.2283 28.206 70.9016 28.206ZM84.6712 28.206C84.1598 28.206 83.7218 28.026 83.3572 27.6662C82.9974 27.3063 82.8198 26.8707 82.8246 26.3594C82.8198 25.8575 82.9974 25.429 83.3572 25.0739C83.7218 24.714 84.1598 24.5341 84.6712 24.5341C85.1541 24.5341 85.5803 24.714 85.9496 25.0739C86.3236 25.429 86.513 25.8575 86.5178 26.3594C86.513 26.7003 86.4231 27.0104 86.2479 27.2898C86.0774 27.5691 85.8525 27.7917 85.5732 27.9574C85.2985 28.1231 84.9979 28.206 84.6712 28.206ZM2.05398 52.206C1.54261 52.206 1.10464 52.026 0.740057 51.6662C0.380208 51.3063 0.202652 50.8707 0.207386 50.3594C0.202652 49.8575 0.380208 49.429 0.740057 49.0739C1.10464 48.714 1.54261 48.5341 2.05398 48.5341C2.53693 48.5341 2.96307 48.714 3.33239 49.0739C3.70644 49.429 3.89583 49.8575 3.90057 50.3594C3.89583 50.7003 3.80587 51.0104 3.63068 51.2898C3.46023 51.5691 3.23532 51.7917 2.95597 51.9574C2.68134 52.1231 2.38068 52.206 2.05398 52.206ZM15.8235 52.206C15.3121 52.206 14.8742 52.026 14.5096 51.6662C14.1497 51.3063 13.9722 50.8707 13.9769 50.3594C13.9722 49.8575 14.1497 49.429 14.5096 49.0739C14.8742 48.714 15.3121 48.5341 15.8235 48.5341C16.3065 48.5341 16.7326 48.714 17.1019 49.0739C17.476 49.429 17.6654 49.8575 17.6701 50.3594C17.6654 50.7003 17.5754 51.0104 17.4002 51.2898C17.2298 51.5691 17.0049 51.7917 16.7255 51.9574C16.4509 52.1231 16.1502 52.206 15.8235 52.206ZM29.593 52.206C29.0817 52.206 28.6437 52.026 28.2791 51.6662C27.9193 51.3063 27.7417 50.8707 27.7464 50.3594C27.7417 49.8575 27.9193 49.429 28.2791 49.0739C28.6437 48.714 29.0817 48.5341 29.593 48.5341C30.076 48.5341 30.5021 48.714 30.8714 49.0739C31.2455 49.429 31.4349 49.8575 31.4396 50.3594C31.4349 50.7003 31.3449 51.0104 31.1697 51.2898C30.9993 51.5691 30.7744 51.7917 30.495 51.9574C30.2204 52.1231 29.9197 52.206 29.593 52.206ZM43.3626 52.206C42.8512 52.206 42.4132 52.026 42.0487 51.6662C41.6888 51.3063 41.5112 50.8707 41.516 50.3594C41.5112 49.8575 41.6888 49.429 42.0487 49.0739C42.4132 48.714 42.8512 48.5341 43.3626 48.5341C43.8455 48.5341 44.2717 48.714 44.641 49.0739C45.015 49.429 45.2044 49.8575 45.2092 50.3594C45.2044 50.7003 45.1145 51.0104 44.9393 51.2898C44.7688 51.5691 44.5439 51.7917 44.2646 51.9574C43.9899 52.1231 43.6893 52.206 43.3626 52.206ZM57.1321 52.206C56.6207 52.206 56.1828 52.026 55.8182 51.6662C55.4583 51.3063 55.2808 50.8707 55.2855 50.3594C55.2808 49.8575 55.4583 49.429 55.8182 49.0739C56.1828 48.714 56.6207 48.5341 57.1321 48.5341C57.6151 48.5341 58.0412 48.714 58.4105 49.0739C58.7846 49.429 58.974 49.8575 58.9787 50.3594C58.974 50.7003 58.884 51.0104 58.7088 51.2898C58.5384 51.5691 58.3134 51.7917 58.0341 51.9574C57.7595 52.1231 57.4588 52.206 57.1321 52.206ZM70.9016 52.206C70.3903 52.206 69.9523 52.026 69.5877 51.6662C69.2279 51.3063 69.0503 50.8707 69.055 50.3594C69.0503 49.8575 69.2279 49.429 69.5877 49.0739C69.9523 48.714 70.3903 48.5341 70.9016 48.5341C71.3846 48.5341 71.8107 48.714 72.18 49.0739C72.5541 49.429 72.7435 49.8575 72.7482 50.3594C72.7435 50.7003 72.6535 51.0104 72.4783 51.2898C72.3079 51.5691 72.083 51.7917 71.8036 51.9574C71.529 52.1231 71.2283 52.206 70.9016 52.206ZM84.6712 52.206C84.1598 52.206 83.7218 52.026 83.3572 51.6662C82.9974 51.3063 82.8198 50.8707 82.8246 50.3594C82.8198 49.8575 82.9974 49.429 83.3572 49.0739C83.7218 48.714 84.1598 48.5341 84.6712 48.5341C85.1541 48.5341 85.5803 48.714 85.9496 49.0739C86.3236 49.429 86.513 49.8575 86.5178 50.3594C86.513 50.7003 86.4231 51.0104 86.2479 51.2898C86.0774 51.5691 85.8525 51.7917 85.5732 51.9574C85.2985 52.1231 84.9979 52.206 84.6712 52.206ZM2.05398 76.206C1.54261 76.206 1.10464 76.026 0.740057 75.6662C0.380208 75.3063 0.202652 74.8707 0.207386 74.3594C0.202652 73.8575 0.380208 73.429 0.740057 73.0739C1.10464 72.714 1.54261 72.5341 2.05398 72.5341C2.53693 72.5341 2.96307 72.714 3.33239 73.0739C3.70644 73.429 3.89583 73.8575 3.90057 74.3594C3.89583 74.7003 3.80587 75.0104 3.63068 75.2898C3.46023 75.5691 3.23532 75.7917 2.95597 75.9574C2.68134 76.1231 2.38068 76.206 2.05398 76.206ZM15.8235 76.206C15.3121 76.206 14.8742 76.026 14.5096 75.6662C14.1497 75.3063 13.9722 74.8707 13.9769 74.3594C13.9722 73.8575 14.1497 73.429 14.5096 73.0739C14.8742 72.714 15.3121 72.5341 15.8235 72.5341C16.3065 72.5341 16.7326 72.714 17.1019 73.0739C17.476 73.429 17.6654 73.8575 17.6701 74.3594C17.6654 74.7003 17.5754 75.0104 17.4002 75.2898C17.2298 75.5691 17.0049 75.7917 16.7255 75.9574C16.4509 76.1231 16.1502 76.206 15.8235 76.206ZM29.593 76.206C29.0817 76.206 28.6437 76.026 28.2791 75.6662C27.9193 75.3063 27.7417 74.8707 27.7464 74.3594C27.7417 73.8575 27.9193 73.429 28.2791 73.0739C28.6437 72.714 29.0817 72.5341 29.593 72.5341C30.076 72.5341 30.5021 72.714 30.8714 73.0739C31.2455 73.429 31.4349 73.8575 31.4396 74.3594C31.4349 74.7003 31.3449 75.0104 31.1697 75.2898C30.9993 75.5691 30.7744 75.7917 30.495 75.9574C30.2204 76.1231 29.9197 76.206 29.593 76.206ZM43.3626 76.206C42.8512 76.206 42.4132 76.026 42.0487 75.6662C41.6888 75.3063 41.5112 74.8707 41.516 74.3594C41.5112 73.8575 41.6888 73.429 42.0487 73.0739C42.4132 72.714 42.8512 72.5341 43.3626 72.5341C43.8455 72.5341 44.2717 72.714 44.641 73.0739C45.015 73.429 45.2044 73.8575 45.2092 74.3594C45.2044 74.7003 45.1145 75.0104 44.9393 75.2898C44.7688 75.5691 44.5439 75.7917 44.2646 75.9574C43.9899 76.1231 43.6893 76.206 43.3626 76.206ZM57.1321 76.206C56.6207 76.206 56.1828 76.026 55.8182 75.6662C55.4583 75.3063 55.2808 74.8707 55.2855 74.3594C55.2808 73.8575 55.4583 73.429 55.8182 73.0739C56.1828 72.714 56.6207 72.5341 57.1321 72.5341C57.6151 72.5341 58.0412 72.714 58.4105 73.0739C58.7846 73.429 58.974 73.8575 58.9787 74.3594C58.974 74.7003 58.884 75.0104 58.7088 75.2898C58.5384 75.5691 58.3134 75.7917 58.0341 75.9574C57.7595 76.1231 57.4588 76.206 57.1321 76.206ZM70.9016 76.206C70.3903 76.206 69.9523 76.026 69.5877 75.6662C69.2279 75.3063 69.0503 74.8707 69.055 74.3594C69.0503 73.8575 69.2279 73.429 69.5877 73.0739C69.9523 72.714 70.3903 72.5341 70.9016 72.5341C71.3846 72.5341 71.8107 72.714 72.18 73.0739C72.5541 73.429 72.7435 73.8575 72.7482 74.3594C72.7435 74.7003 72.6535 75.0104 72.4783 75.2898C72.3079 75.5691 72.083 75.7917 71.8036 75.9574C71.529 76.1231 71.2283 76.206 70.9016 76.206ZM84.6712 76.206C84.1598 76.206 83.7218 76.026 83.3572 75.6662C82.9974 75.3063 82.8198 74.8707 82.8246 74.3594C82.8198 73.8575 82.9974 73.429 83.3572 73.0739C83.7218 72.714 84.1598 72.5341 84.6712 72.5341C85.1541 72.5341 85.5803 72.714 85.9496 73.0739C86.3236 73.429 86.513 73.8575 86.5178 74.3594C86.513 74.7003 86.4231 75.0104 86.2479 75.2898C86.0774 75.5691 85.8525 75.7917 85.5732 75.9574C85.2985 76.1231 84.9979 76.206 84.6712 76.206Z" fill="white"/>
</svg>
