<svg width="156" height="140" viewBox="0 0 156 140" fill="none" xmlns="http://www.w3.org/2000/svg">
<path d="M3.49716 7.37074C2.5767 7.37074 1.78835 7.04688 1.1321 6.39915C0.484375 5.75142 0.164773 4.96733 0.173296 4.04688C0.164773 3.14347 0.484375 2.37216 1.1321 1.73295C1.78835 1.08523 2.5767 0.761364 3.49716 0.761364C4.36648 0.761364 5.13352 1.08523 5.7983 1.73295C6.47159 2.37216 6.8125 3.14347 6.82102 4.04688C6.8125 4.66051 6.65057 5.21875 6.33523 5.72159C6.02841 6.22443 5.62358 6.625 5.12074 6.9233C4.62642 7.22159 4.08523 7.37074 3.49716 7.37074ZM28.2823 7.37074C27.3619 7.37074 26.5735 7.04688 25.9173 6.39915C25.2695 5.75142 24.9499 4.96733 24.9585 4.04688C24.9499 3.14347 25.2695 2.37216 25.9173 1.73295C26.5735 1.08523 27.3619 0.761364 28.2823 0.761364C29.1516 0.761364 29.9187 1.08523 30.5835 1.73295C31.2567 2.37216 31.5977 3.14347 31.6062 4.04688C31.5977 4.66051 31.4357 5.21875 31.1204 5.72159C30.8136 6.22443 30.4087 6.625 29.9059 6.9233C29.4116 7.22159 28.8704 7.37074 28.2823 7.37074ZM53.0675 7.37074C52.147 7.37074 51.3587 7.04688 50.7024 6.39915C50.0547 5.75142 49.7351 4.96733 49.7436 4.04688C49.7351 3.14347 50.0547 2.37216 50.7024 1.73295C51.3587 1.08523 52.147 0.761364 53.0675 0.761364C53.9368 0.761364 54.7038 1.08523 55.3686 1.73295C56.0419 2.37216 56.3828 3.14347 56.3913 4.04688C56.3828 4.66051 56.2209 5.21875 55.9055 5.72159C55.5987 6.22443 55.1939 6.625 54.6911 6.9233C54.1967 7.22159 53.6555 7.37074 53.0675 7.37074ZM77.8526 7.37074C76.9322 7.37074 76.1438 7.04688 75.4876 6.39915C74.8398 5.75142 74.5202 4.96733 74.5288 4.04688C74.5202 3.14347 74.8398 2.37216 75.4876 1.73295C76.1438 1.08523 76.9322 0.761364 77.8526 0.761364C78.7219 0.761364 79.489 1.08523 80.1538 1.73295C80.8271 2.37216 81.168 3.14347 81.1765 4.04688C81.168 4.66051 81.006 5.21875 80.6907 5.72159C80.3839 6.22443 79.979 6.625 79.4762 6.9233C78.9819 7.22159 78.4407 7.37074 77.8526 7.37074ZM102.638 7.37074C101.717 7.37074 100.929 7.04688 100.273 6.39915C99.625 5.75142 99.3054 4.96733 99.3139 4.04688C99.3054 3.14347 99.625 2.37216 100.273 1.73295C100.929 1.08523 101.717 0.761364 102.638 0.761364C103.507 0.761364 104.274 1.08523 104.939 1.73295C105.612 2.37216 105.953 3.14347 105.962 4.04688C105.953 4.66051 105.791 5.21875 105.476 5.72159C105.169 6.22443 104.764 6.625 104.261 6.9233C103.767 7.22159 103.226 7.37074 102.638 7.37074ZM127.423 7.37074C126.502 7.37074 125.714 7.04688 125.058 6.39915C124.41 5.75142 124.091 4.96733 124.099 4.04688C124.091 3.14347 124.41 2.37216 125.058 1.73295C125.714 1.08523 126.502 0.761364 127.423 0.761364C128.292 0.761364 129.059 1.08523 129.724 1.73295C130.397 2.37216 130.738 3.14347 130.747 4.04688C130.738 4.66051 130.576 5.21875 130.261 5.72159C129.954 6.22443 129.549 6.625 129.047 6.9233C128.552 7.22159 128.011 7.37074 127.423 7.37074ZM152.208 7.37074C151.288 7.37074 150.499 7.04688 149.843 6.39915C149.195 5.75142 148.876 4.96733 148.884 4.04688C148.876 3.14347 149.195 2.37216 149.843 1.73295C150.499 1.08523 151.288 0.761364 152.208 0.761364C153.077 0.761364 153.844 1.08523 154.509 1.73295C155.183 2.37216 155.523 3.14347 155.532 4.04688C155.523 4.66051 155.362 5.21875 155.046 5.72159C154.739 6.22443 154.335 6.625 153.832 6.9233C153.337 7.22159 152.796 7.37074 152.208 7.37074ZM3.49716 51.3707C2.5767 51.3707 1.78835 51.0469 1.1321 50.3991C0.484375 49.7514 0.164773 48.9673 0.173296 48.0469C0.164773 47.1435 0.484375 46.3722 1.1321 45.733C1.78835 45.0852 2.5767 44.7614 3.49716 44.7614C4.36648 44.7614 5.13352 45.0852 5.7983 45.733C6.47159 46.3722 6.8125 47.1435 6.82102 48.0469C6.8125 48.6605 6.65057 49.2187 6.33523 49.7216C6.02841 50.2244 5.62358 50.625 5.12074 50.9233C4.62642 51.2216 4.08523 51.3707 3.49716 51.3707ZM28.2823 51.3707C27.3619 51.3707 26.5735 51.0469 25.9173 50.3991C25.2695 49.7514 24.9499 48.9673 24.9585 48.0469C24.9499 47.1435 25.2695 46.3722 25.9173 45.733C26.5735 45.0852 27.3619 44.7614 28.2823 44.7614C29.1516 44.7614 29.9187 45.0852 30.5835 45.733C31.2567 46.3722 31.5977 47.1435 31.6062 48.0469C31.5977 48.6605 31.4357 49.2187 31.1204 49.7216C30.8136 50.2244 30.4087 50.625 29.9059 50.9233C29.4116 51.2216 28.8704 51.3707 28.2823 51.3707ZM53.0675 51.3707C52.147 51.3707 51.3587 51.0469 50.7024 50.3991C50.0547 49.7514 49.7351 48.9673 49.7436 48.0469C49.7351 47.1435 50.0547 46.3722 50.7024 45.733C51.3587 45.0852 52.147 44.7614 53.0675 44.7614C53.9368 44.7614 54.7038 45.0852 55.3686 45.733C56.0419 46.3722 56.3828 47.1435 56.3913 48.0469C56.3828 48.6605 56.2209 49.2187 55.9055 49.7216C55.5987 50.2244 55.1939 50.625 54.6911 50.9233C54.1967 51.2216 53.6555 51.3707 53.0675 51.3707ZM77.8526 51.3707C76.9322 51.3707 76.1438 51.0469 75.4876 50.3991C74.8398 49.7514 74.5202 48.9673 74.5288 48.0469C74.5202 47.1435 74.8398 46.3722 75.4876 45.733C76.1438 45.0852 76.9322 44.7614 77.8526 44.7614C78.7219 44.7614 79.489 45.0852 80.1538 45.733C80.8271 46.3722 81.168 47.1435 81.1765 48.0469C81.168 48.6605 81.006 49.2187 80.6907 49.7216C80.3839 50.2244 79.979 50.625 79.4762 50.9233C78.9819 51.2216 78.4407 51.3707 77.8526 51.3707ZM102.638 51.3707C101.717 51.3707 100.929 51.0469 100.273 50.3991C99.625 49.7514 99.3054 48.9673 99.3139 48.0469C99.3054 47.1435 99.625 46.3722 100.273 45.733C100.929 45.0852 101.717 44.7614 102.638 44.7614C103.507 44.7614 104.274 45.0852 104.939 45.733C105.612 46.3722 105.953 47.1435 105.962 48.0469C105.953 48.6605 105.791 49.2187 105.476 49.7216C105.169 50.2244 104.764 50.625 104.261 50.9233C103.767 51.2216 103.226 51.3707 102.638 51.3707ZM127.423 51.3707C126.502 51.3707 125.714 51.0469 125.058 50.3991C124.41 49.7514 124.091 48.9673 124.099 48.0469C124.091 47.1435 124.41 46.3722 125.058 45.733C125.714 45.0852 126.502 44.7614 127.423 44.7614C128.292 44.7614 129.059 45.0852 129.724 45.733C130.397 46.3722 130.738 47.1435 130.747 48.0469C130.738 48.6605 130.576 49.2187 130.261 49.7216C129.954 50.2244 129.549 50.625 129.047 50.9233C128.552 51.2216 128.011 51.3707 127.423 51.3707ZM152.208 51.3707C151.288 51.3707 150.499 51.0469 149.843 50.3991C149.195 49.7514 148.876 48.9673 148.884 48.0469C148.876 47.1435 149.195 46.3722 149.843 45.733C150.499 45.0852 151.288 44.7614 152.208 44.7614C153.077 44.7614 153.844 45.0852 154.509 45.733C155.183 46.3722 155.523 47.1435 155.532 48.0469C155.523 48.6605 155.362 49.2187 155.046 49.7216C154.739 50.2244 154.335 50.625 153.832 50.9233C153.337 51.2216 152.796 51.3707 152.208 51.3707ZM3.49716 95.3707C2.5767 95.3707 1.78835 95.0469 1.1321 94.3991C0.484375 93.7514 0.164773 92.9673 0.173296 92.0469C0.164773 91.1435 0.484375 90.3722 1.1321 89.733C1.78835 89.0852 2.5767 88.7614 3.49716 88.7614C4.36648 88.7614 5.13352 89.0852 5.7983 89.733C6.47159 90.3722 6.8125 91.1435 6.82102 92.0469C6.8125 92.6605 6.65057 93.2187 6.33523 93.7216C6.02841 94.2244 5.62358 94.625 5.12074 94.9233C4.62642 95.2216 4.08523 95.3707 3.49716 95.3707ZM28.2823 95.3707C27.3619 95.3707 26.5735 95.0469 25.9173 94.3991C25.2695 93.7514 24.9499 92.9673 24.9585 92.0469C24.9499 91.1435 25.2695 90.3722 25.9173 89.733C26.5735 89.0852 27.3619 88.7614 28.2823 88.7614C29.1516 88.7614 29.9187 89.0852 30.5835 89.733C31.2567 90.3722 31.5977 91.1435 31.6062 92.0469C31.5977 92.6605 31.4357 93.2187 31.1204 93.7216C30.8136 94.2244 30.4087 94.625 29.9059 94.9233C29.4116 95.2216 28.8704 95.3707 28.2823 95.3707ZM53.0675 95.3707C52.147 95.3707 51.3587 95.0469 50.7024 94.3991C50.0547 93.7514 49.7351 92.9673 49.7436 92.0469C49.7351 91.1435 50.0547 90.3722 50.7024 89.733C51.3587 89.0852 52.147 88.7614 53.0675 88.7614C53.9368 88.7614 54.7038 89.0852 55.3686 89.733C56.0419 90.3722 56.3828 91.1435 56.3913 92.0469C56.3828 92.6605 56.2209 93.2187 55.9055 93.7216C55.5987 94.2244 55.1939 94.625 54.6911 94.9233C54.1967 95.2216 53.6555 95.3707 53.0675 95.3707ZM77.8526 95.3707C76.9322 95.3707 76.1438 95.0469 75.4876 94.3991C74.8398 93.7514 74.5202 92.9673 74.5288 92.0469C74.5202 91.1435 74.8398 90.3722 75.4876 89.733C76.1438 89.0852 76.9322 88.7614 77.8526 88.7614C78.7219 88.7614 79.489 89.0852 80.1538 89.733C80.8271 90.3722 81.168 91.1435 81.1765 92.0469C81.168 92.6605 81.006 93.2187 80.6907 93.7216C80.3839 94.2244 79.979 94.625 79.4762 94.9233C78.9819 95.2216 78.4407 95.3707 77.8526 95.3707ZM102.638 95.3707C101.717 95.3707 100.929 95.0469 100.273 94.3991C99.625 93.7514 99.3054 92.9673 99.3139 92.0469C99.3054 91.1435 99.625 90.3722 100.273 89.733C100.929 89.0852 101.717 88.7614 102.638 88.7614C103.507 88.7614 104.274 89.0852 104.939 89.733C105.612 90.3722 105.953 91.1435 105.962 92.0469C105.953 92.6605 105.791 93.2187 105.476 93.7216C105.169 94.2244 104.764 94.625 104.261 94.9233C103.767 95.2216 103.226 95.3707 102.638 95.3707ZM127.423 95.3707C126.502 95.3707 125.714 95.0469 125.058 94.3991C124.41 93.7514 124.091 92.9673 124.099 92.0469C124.091 91.1435 124.41 90.3722 125.058 89.733C125.714 89.0852 126.502 88.7614 127.423 88.7614C128.292 88.7614 129.059 89.0852 129.724 89.733C130.397 90.3722 130.738 91.1435 130.747 92.0469C130.738 92.6605 130.576 93.2187 130.261 93.7216C129.954 94.2244 129.549 94.625 129.047 94.9233C128.552 95.2216 128.011 95.3707 127.423 95.3707ZM152.208 95.3707C151.288 95.3707 150.499 95.0469 149.843 94.3991C149.195 93.7514 148.876 92.9673 148.884 92.0469C148.876 91.1435 149.195 90.3722 149.843 89.733C150.499 89.0852 151.288 88.7614 152.208 88.7614C153.077 88.7614 153.844 89.0852 154.509 89.733C155.183 90.3722 155.523 91.1435 155.532 92.0469C155.523 92.6605 155.362 93.2187 155.046 93.7216C154.739 94.2244 154.335 94.625 153.832 94.9233C153.337 95.2216 152.796 95.3707 152.208 95.3707ZM3.49716 139.371C2.5767 139.371 1.78835 139.047 1.1321 138.399C0.484375 137.751 0.164773 136.967 0.173296 136.047C0.164773 135.143 0.484375 134.372 1.1321 133.733C1.78835 133.085 2.5767 132.761 3.49716 132.761C4.36648 132.761 5.13352 133.085 5.7983 133.733C6.47159 134.372 6.8125 135.143 6.82102 136.047C6.8125 136.661 6.65057 137.219 6.33523 137.722C6.02841 138.224 5.62358 138.625 5.12074 138.923C4.62642 139.222 4.08523 139.371 3.49716 139.371ZM28.2823 139.371C27.3619 139.371 26.5735 139.047 25.9173 138.399C25.2695 137.751 24.9499 136.967 24.9585 136.047C24.9499 135.143 25.2695 134.372 25.9173 133.733C26.5735 133.085 27.3619 132.761 28.2823 132.761C29.1516 132.761 29.9187 133.085 30.5835 133.733C31.2567 134.372 31.5977 135.143 31.6062 136.047C31.5977 136.661 31.4357 137.219 31.1204 137.722C30.8136 138.224 30.4087 138.625 29.9059 138.923C29.4116 139.222 28.8704 139.371 28.2823 139.371ZM53.0675 139.371C52.147 139.371 51.3587 139.047 50.7024 138.399C50.0547 137.751 49.7351 136.967 49.7436 136.047C49.7351 135.143 50.0547 134.372 50.7024 133.733C51.3587 133.085 52.147 132.761 53.0675 132.761C53.9368 132.761 54.7038 133.085 55.3686 133.733C56.0419 134.372 56.3828 135.143 56.3913 136.047C56.3828 136.661 56.2209 137.219 55.9055 137.722C55.5987 138.224 55.1939 138.625 54.6911 138.923C54.1967 139.222 53.6555 139.371 53.0675 139.371ZM77.8526 139.371C76.9322 139.371 76.1438 139.047 75.4876 138.399C74.8398 137.751 74.5202 136.967 74.5288 136.047C74.5202 135.143 74.8398 134.372 75.4876 133.733C76.1438 133.085 76.9322 132.761 77.8526 132.761C78.7219 132.761 79.489 133.085 80.1538 133.733C80.8271 134.372 81.168 135.143 81.1765 136.047C81.168 136.661 81.006 137.219 80.6907 137.722C80.3839 138.224 79.979 138.625 79.4762 138.923C78.9819 139.222 78.4407 139.371 77.8526 139.371ZM102.638 139.371C101.717 139.371 100.929 139.047 100.273 138.399C99.625 137.751 99.3054 136.967 99.3139 136.047C99.3054 135.143 99.625 134.372 100.273 133.733C100.929 133.085 101.717 132.761 102.638 132.761C103.507 132.761 104.274 133.085 104.939 133.733C105.612 134.372 105.953 135.143 105.962 136.047C105.953 136.661 105.791 137.219 105.476 137.722C105.169 138.224 104.764 138.625 104.261 138.923C103.767 139.222 103.226 139.371 102.638 139.371ZM127.423 139.371C126.502 139.371 125.714 139.047 125.058 138.399C124.41 137.751 124.091 136.967 124.099 136.047C124.091 135.143 124.41 134.372 125.058 133.733C125.714 133.085 126.502 132.761 127.423 132.761C128.292 132.761 129.059 133.085 129.724 133.733C130.397 134.372 130.738 135.143 130.747 136.047C130.738 136.661 130.576 137.219 130.261 137.722C129.954 138.224 129.549 138.625 129.047 138.923C128.552 139.222 128.011 139.371 127.423 139.371ZM152.208 139.371C151.288 139.371 150.499 139.047 149.843 138.399C149.195 137.751 148.876 136.967 148.884 136.047C148.876 135.143 149.195 134.372 149.843 133.733C150.499 133.085 151.288 132.761 152.208 132.761C153.077 132.761 153.844 133.085 154.509 133.733C155.183 134.372 155.523 135.143 155.532 136.047C155.523 136.661 155.362 137.219 155.046 137.722C154.739 138.224 154.335 138.625 153.832 138.923C153.337 139.222 152.796 139.371 152.208 139.371Z" fill="white"/>
</svg>
