<svg width="38" height="34" viewBox="0 0 38 34" fill="none" xmlns="http://www.w3.org/2000/svg">
<path d="M19 0C8.50403 0 0 7.60887 0 17C0 26.3911 8.50403 34 19 34C29.496 34 38 26.3911 38 17C38 7.60887 29.496 0 19 0ZM23.3746 23.9988L16.6173 19.6048C16.3798 19.4472 16.2419 19.2004 16.2419 18.9399V7.40323C16.2419 6.95081 16.6556 6.58065 17.1613 6.58065H20.8387C21.3444 6.58065 21.7581 6.95081 21.7581 7.40323V16.8423L26.623 20.0093C27.0367 20.2766 27.121 20.7907 26.8222 21.1609L24.6617 23.8206C24.3629 24.1839 23.7883 24.2661 23.3746 23.9988Z" fill="#0AEB06"/>
</svg>
