<svg width="61" height="61" viewBox="0 0 61 61" fill="none" xmlns="http://www.w3.org/2000/svg">
<path d="M54.4643 0H6.53571C4.80234 0 3.13995 0.688582 1.91427 1.91427C0.688582 3.13995 0 4.80234 0 6.53571L0 54.4643C0 56.1977 0.688582 57.8601 1.91427 59.0857C3.13995 60.3114 4.80234 61 6.53571 61H25.2238V40.2614H16.6456V30.5H25.2238V23.0602C25.2238 14.5978 30.2617 9.92339 37.9779 9.92339C41.6734 9.92339 45.5376 10.5824 45.5376 10.5824V18.8882H41.2798C37.0847 18.8882 35.7762 21.4916 35.7762 24.1617V30.5H45.1414L43.6436 40.2614H35.7762V61H54.4643C56.1977 61 57.8601 60.3114 59.0857 59.0857C60.3114 57.8601 61 56.1977 61 54.4643V6.53571C61 4.80234 60.3114 3.13995 59.0857 1.91427C57.8601 0.688582 56.1977 0 54.4643 0Z" fill="#0AEB06"/>
</svg>
