<svg width="131" height="131" viewBox="0 0 131 131" fill="none" xmlns="http://www.w3.org/2000/svg">
<g clip-path="url(#clip0_17_21)">
<path d="M65.5225 130.136C101.22 130.136 130.159 101.197 130.159 65.4999C130.159 29.8024 101.22 0.863525 65.5225 0.863525C29.825 0.863525 0.886292 29.8022 0.886292 65.5C0.886292 101.198 29.8249 130.136 65.5225 130.136Z" fill="white"/>
<path d="M13.798 54.395C14.1233 54.3916 14.4403 54.291 14.7091 54.1059C14.978 53.9208 15.1866 53.6594 15.3088 53.3547C15.4309 53.0501 15.4612 52.7156 15.3956 52.3936C15.3301 52.0716 15.1718 51.7764 14.9406 51.5451C14.7093 51.3139 14.4156 51.1569 14.0963 51.094C13.777 51.0311 13.4464 51.0651 13.1461 51.1916C12.8459 51.3182 12.5894 51.5317 12.409 51.8053C12.2285 52.0788 12.1322 52.4002 12.1322 52.729C12.1333 52.9489 12.1773 53.1664 12.2616 53.3692C12.3459 53.5719 12.4689 53.7559 12.6236 53.9106C12.7783 54.0653 12.9616 54.1877 13.1631 54.2709C13.3646 54.354 13.5803 54.3962 13.798 54.395Z" fill="#1D1D1B"/>
<path d="M117.22 54.395C117.545 54.3916 117.862 54.2911 118.131 54.1059C118.4 53.9208 118.608 53.6595 118.731 53.3548C118.853 53.0501 118.883 52.7157 118.818 52.3937C118.752 52.0717 118.594 51.7765 118.362 51.5452C118.131 51.3139 117.837 51.1569 117.518 51.094C117.199 51.0311 116.868 51.0651 116.568 51.1916C116.268 51.3182 116.011 51.5317 115.831 51.8053C115.65 52.0788 115.554 52.4002 115.554 52.729C115.555 52.9489 115.599 53.1664 115.683 53.3692C115.768 53.5719 115.891 53.7559 116.045 53.9106C116.2 54.0654 116.383 54.1878 116.585 54.2709C116.786 54.354 117.002 54.3962 117.22 54.395Z" fill="#1D1D1B"/>
<path d="M65.5206 1.56283e-05C52.5811 -0.00893426 39.9246 3.82631 29.1252 11.0287C18.3511 18.2235 9.95256 28.4518 4.99191 40.4198C0.0325324 52.3746 -1.26865 65.5567 1.25617 78.2658C3.78118 90.9731 10.0178 102.646 19.1773 111.808C28.3368 120.97 40.0077 127.211 52.7141 129.74C65.4184 132.269 78.5779 130.974 90.5608 126.016C102.531 121.059 112.761 112.664 119.96 101.892C127.15 91.146 130.995 78.4722 131 65.5002C131 48.132 124.102 31.4749 111.823 19.1919C99.5435 6.90885 82.8887 0.00546933 65.5206 1.56283e-05ZM65.5206 129.231C52.9273 129.236 40.6105 125.5 30.1019 118.487C19.618 111.482 11.4467 101.526 6.62151 89.8761C1.79753 78.2402 0.533901 65.4107 2.99358 53.0421C5.45355 40.6755 11.5253 29.3158 20.4412 20.4C29.357 11.4842 40.7164 5.41247 53.0833 2.95249C65.448 0.492436 78.2554 1.75386 89.9173 6.58034C101.566 11.4056 111.523 19.5768 118.528 30.0608C126.71 42.3051 130.395 57.0552 128.948 71.7565C127.5 86.4578 121.009 100.184 110.6 110.559C98.5913 122.536 82.3934 129.246 65.5206 129.231V129.231Z" fill="#1D1D1B"/>
<path d="M65.5191 28.7529C57.2726 28.7498 49.2071 31.1964 42.3256 35.7886C35.4764 40.3563 30.1247 46.8774 26.9497 54.5242C23.7922 62.1542 22.9668 70.5645 24.5796 78.6726C26.1924 86.7808 30.1696 94.2156 35.9994 100.02C40.3805 104.394 45.6599 107.74 51.4635 109.821C57.2671 111.903 63.4527 112.669 69.5819 112.065C75.7112 111.461 81.634 109.503 86.9306 106.328C92.2271 103.153 96.7678 98.8398 100.231 93.6939C105.588 85.6759 108.002 76.0169 107.054 66.3898C106.105 56.7628 101.855 47.774 95.0387 40.9804C87.1751 33.1371 76.5681 28.7435 65.5191 28.7529ZM65.5191 111.26C57.4676 111.263 49.5928 108.875 42.8741 104.391C36.1868 99.9314 30.9616 93.5645 27.8617 86.0985C24.7789 78.6489 23.973 70.4375 25.5476 62.5211C27.1223 54.6047 31.0055 47.3457 36.6974 41.6785C40.9748 37.4084 46.1294 34.1414 51.7957 32.1091C57.462 30.0767 63.5014 29.3287 69.4857 29.9181C75.47 30.5075 81.2528 32.4199 86.4241 35.5197C91.5954 38.6195 96.0287 42.8308 99.4097 47.8551C103.884 54.542 106.276 62.4284 106.279 70.5003C106.279 81.3106 101.985 91.6778 94.341 99.3217C86.697 106.966 76.3295 111.26 65.5191 111.26Z" fill="#1D1D1B"/>
<path d="M90.2385 44.2976H80.6347V41.8707H76.9943V31.4031H62.3521C61.0896 31.3374 59.8279 31.5477 58.6531 32.0198C57.4783 32.4918 56.4182 33.2144 55.545 34.1383C53.9908 36.0101 53.1841 38.4009 53.2831 40.8423V44.2769H41.8283L37.0367 89.1089L65.9923 101.448L94.9482 89.1089L90.2385 44.2976ZM66.0744 100.399H65.9716L38.188 88.5536L42.7534 45.4902V45.2432H54.3523V40.8423C54.2409 38.597 54.9757 36.3926 56.4086 34.673C57.1884 33.8594 58.1314 33.2238 59.1742 32.8088C60.2171 32.3938 61.3357 32.2091 62.4551 32.2669H76.1103V42.7138H79.7503V45.2432H89.4363V45.3668L93.9607 88.4301L66.0744 100.399Z" fill="#1D1D1B"/>
<path fill-rule="evenodd" clip-rule="evenodd" d="M79.6886 50.1588H76.0486V56.7807H79.6886V58.467H89.0869L87.8737 46.9299H79.6886V50.1588Z" fill="#00B1EB"/>
<path fill-rule="evenodd" clip-rule="evenodd" d="M44.1931 46.9299L42.9796 58.467H54.2699V46.9299H44.1931Z" fill="#00B1EB"/>
<path fill-rule="evenodd" clip-rule="evenodd" d="M89.2516 60.0298H79.6885V64.1429H76.1102V69.7365H64.717V60.0298H60.4601V61.1199C60.4601 66.6312 55.3395 69.5311 50.1778 69.5311H49.6635V63.5258H49.9927C52.378 63.5258 54.1055 62.2714 54.1055 60.6057V60.0298H42.7947L39.8952 87.4636L66.0333 98.5894L92.1717 87.4636L89.2516 60.0298Z" fill="#005CA9"/>
<path d="M64.7173 51.9299H60.4603V63.467H64.7173V51.9299Z" fill="#00B1EB"/>
<path fill-rule="evenodd" clip-rule="evenodd" d="M63.339 37.7161C62.9347 37.7169 62.535 37.8024 62.165 37.9672C61.7962 38.1312 61.4654 38.3712 61.1936 38.6718C60.9229 38.9708 60.7177 39.3241 60.5913 39.7087C60.4648 40.0933 60.4201 40.5005 60.46 40.9037V45.2429H64.717V37.7161H63.339ZM63.7711 44.2969H61.4058V40.9037C61.3808 40.6282 61.4114 40.3503 61.4957 40.087C61.5801 39.8237 61.7164 39.5805 61.8965 39.372C62.0773 39.1625 62.298 38.9919 62.5453 38.8702C62.7935 38.7482 63.0634 38.6775 63.339 38.6621H63.7711V44.2969Z" fill="black"/>
<path d="M56.4705 77.3456C56.2359 77.3321 56.0027 77.3895 55.8006 77.5106C55.5993 77.6311 55.4387 77.8101 55.3395 78.0242C55.1109 78.4755 54.9978 78.9774 55.0103 79.4843H54.1056C54.048 78.7097 54.2588 77.9391 54.7018 77.3044C54.9073 77.0142 55.1835 76.7826 55.5036 76.6319C55.8247 76.4803 56.1789 76.4144 56.5324 76.4407C57.1487 76.4249 57.7467 76.6537 58.1981 77.078C58.4344 77.3168 58.6175 77.6039 58.7351 77.92C58.852 78.2353 58.9003 78.5724 58.8766 78.9083C58.9162 79.5598 58.7188 80.2035 58.3214 80.7181C57.949 81.1501 57.528 81.5367 57.0668 81.87C56.5872 82.1989 56.1348 82.5278 55.7095 82.8568C55.307 83.1708 55.0356 83.6258 54.9488 84.1321H58.7944V85.037H53.9C53.904 84.2325 54.1554 83.4491 54.6196 82.7954C55.0305 82.3124 55.5004 81.8838 56.0179 81.5201C56.539 81.1682 57.0217 80.7615 57.458 80.3068C57.7876 79.9113 57.9565 79.4042 57.9309 78.8877C57.9396 78.6824 57.9056 78.4776 57.8312 78.2863C57.7568 78.0951 57.6436 77.9217 57.4988 77.7774C57.3648 77.6395 57.2046 77.5302 57.028 77.456C56.8513 77.3818 56.6617 77.3443 56.4704 77.3456H56.4705Z" fill="white"/>
<path d="M62.6193 85.181C62.1563 85.2234 61.6935 85.097 61.3147 84.8247C60.9379 84.554 60.6708 84.1547 60.5629 83.7005C60.0663 81.7999 60.0663 79.8016 60.5629 77.9011C60.7301 77.4707 61.0224 77.1016 61.4013 76.8424C61.7823 76.5822 62.2316 76.4431 62.6914 76.4431C63.1512 76.4431 63.6005 76.5822 63.9814 76.8424C64.3603 77.1017 64.6525 77.4708 64.8199 77.9011C65.3039 79.8033 65.3039 81.7983 64.8199 83.7005C64.7145 84.1851 64.427 84.6095 64.0181 84.8842C63.6067 85.1605 63.106 85.2668 62.6193 85.181ZM62.6193 77.3458C62.4486 77.3375 62.278 77.3636 62.1173 77.4227C61.957 77.4815 61.81 77.5723 61.685 77.6897C61.5606 77.8062 61.4608 77.9469 61.3916 78.1034C61.3225 78.2598 61.2853 78.4288 61.2825 78.6002C61.0229 80.0624 61.0229 81.5595 61.2825 83.0217C61.3237 83.3511 61.4834 83.6537 61.731 83.8719C61.98 84.0915 62.2993 84.2125 62.6298 84.2125C62.9603 84.2125 63.2796 84.0915 63.5286 83.8719C63.7761 83.6537 63.9356 83.3511 63.9767 83.0217C64.2311 81.5591 64.2311 80.0628 63.9767 78.6002C63.9744 78.4273 63.9369 78.2567 63.8665 78.0991C63.7956 77.9407 63.6935 77.7985 63.5666 77.6812C63.4396 77.5639 63.2904 77.4738 63.128 77.4165C62.9649 77.3585 62.7919 77.3345 62.6193 77.3458Z" fill="white"/>
<path d="M69.5705 76.4404V85.0364H68.5421V78.8669H66.609V78.0444C67.086 78.0534 67.5583 77.9478 67.987 77.7362C68.2067 77.6012 68.391 77.4145 68.5239 77.1921C68.656 76.9704 68.7329 76.7196 68.748 76.4612L69.5705 76.4404Z" fill="white"/>
<path d="M76.1103 76.4404V82.1164H76.9532V83.0212H76.1103V85.0776H75.2874V83.0212H71.997V81.9723L75.3904 76.4407L76.1103 76.4404ZM72.7169 82.1164H75.2874V77.8797L72.7169 82.1164Z" fill="white"/>
<path d="M60.7275 9.93284L61.4474 9.87115L61.7766 14.9096L61.0567 14.9508L61.0771 15.1359L63.3598 14.9714L63.3394 14.7863L62.6402 14.848L62.311 9.83004L63.0102 9.7888V9.58325L60.7275 9.74773V9.93284Z" fill="#1D1D1B"/>
<path d="M83.8842 12.8125L84.6656 13.0593L83.5137 16.5348L82.1566 12.031L80.5319 11.4963L80.4705 11.6814L81.1285 11.8872L79.545 16.658L78.8869 16.4523L78.8251 16.6169L80.4908 17.1721L80.5527 17.0076L79.7505 16.7405L81.2932 12.1339L83.0822 18.1183L83.2263 18.1389L84.8918 13.1416L85.5499 13.3472L85.6118 13.1827L83.946 12.6275L83.8842 12.8125Z" fill="#1D1D1B"/>
<path d="M36.6869 17.7473L37.3037 17.3977L39.8127 21.7575L39.1959 22.1071L39.2782 22.2716L41.2524 21.1405L41.1702 20.976L40.5534 21.3256L38.0442 16.9658L38.661 16.6162L38.5582 16.4519L36.5842 17.6034L36.6869 17.7473Z" fill="#1D1D1B"/>
<path d="M114.691 39.341L115.081 40.0605L111.873 41.8291L113.93 37.6131L113.107 36.0916L112.943 36.1943L113.271 36.7907L108.871 39.238L108.542 38.621L108.377 38.7035L109.22 40.2461L109.385 40.1636L108.973 39.423L113.23 37.0787V37.0993L110.475 42.693L110.578 42.8165L115.184 40.2661L115.513 40.8626L115.698 40.7801L114.855 39.2586L114.691 39.341Z" fill="#1D1D1B"/>
<path d="M102.988 24.2461L103.503 24.6985L101.94 26.4466L100.192 24.8838L101.755 23.1356L102.249 23.5881L102.393 23.4441L100.706 21.9429L100.583 22.0866L101.117 22.5596L97.7651 26.3026L97.2307 25.8296L97.107 25.9736L98.7933 27.4749L98.9167 27.3515L98.4028 26.8784L100.069 25.0276L101.816 26.5904L100.151 28.462L99.6369 27.989L99.5136 28.1329L101.2 29.6342L101.323 29.4902L100.788 29.0172L104.14 25.2744L104.675 25.7474L104.798 25.624L103.112 24.1022L102.988 24.2461Z" fill="#1D1D1B"/>
<path d="M19.6589 33.789L20.0497 33.2132L21.9828 34.5294L20.6667 36.4831L18.7337 35.1669L19.1037 34.6117L18.9598 34.4882L17.6847 36.3597L17.8494 36.4625L18.2401 35.8867L22.4148 38.7041L22.0035 39.28L22.168 39.3829L23.4225 37.532L23.2785 37.4291L22.8877 37.9845L20.8312 36.5859L22.1474 34.6322L24.2039 36.0306L23.8337 36.6064L23.9777 36.7092L25.2527 34.8378L25.0882 34.735L24.6976 35.3314L20.5227 32.514L20.934 31.9176L20.7695 31.8147L19.515 33.6862L19.6589 33.789Z" fill="#1D1D1B"/>
<path d="M94.4543 17.5833H94.331L90.0533 21.2026L89.5189 20.8736V21.0381L90.9584 21.9018V21.7373L90.2796 21.326L91.6368 20.1538L92.8296 20.8733L92.3978 22.6008L91.719 22.1895V22.3541L93.7758 23.6085V23.444L93.1792 23.0944L94.4543 17.5833ZM91.822 19.9276L93.3848 18.6114L92.8915 20.6679L91.822 19.9276Z" fill="#1D1D1B"/>
<path d="M23.1142 28.9558V29.0792L25.9728 33.8913L25.5616 34.3644L25.7055 34.4878L26.7952 33.2128L26.6512 33.0894L26.1373 33.6858L25.2118 32.164L26.1373 31.0946L27.7619 31.8143L27.2478 32.4107L27.3917 32.5341L28.9753 30.6833L28.8107 30.5599L28.3583 31.0946L23.1142 28.9558ZM24.9856 31.9583L23.9368 30.2103L25.7877 31.0123L24.9856 31.9583Z" fill="#1D1D1B"/>
<path d="M29.4482 22.9301L30.065 22.3954L32.4094 25.0483C33.0058 25.7269 33.2938 26.2616 32.2243 27.2076C31.1548 28.1536 30.8464 27.804 30.1678 27.0842L27.8028 24.3902L28.3581 23.8966L28.2347 23.7527L26.5072 25.2745L26.6306 25.4185L27.1447 24.966L29.5919 27.7218C30.2706 28.4825 30.8053 28.75 32.1832 27.5367C33.561 26.3233 33.2937 25.7269 32.615 24.966L30.2295 22.2514L30.7025 21.8401L30.5791 21.6963L29.3246 22.8067L29.4482 22.9301Z" fill="#1D1D1B"/>
<path d="M16.4715 38.8887L16.8622 38.1481L20.091 39.855L15.4432 40.4721L14.6412 41.9941L14.8057 42.0966L15.1347 41.4592L19.5974 43.7832L19.2684 44.3999L19.4329 44.5029L20.2555 42.9395L20.0704 42.8576L19.7003 43.598L15.3816 41.3563L15.4021 41.3358L21.5922 40.5338L21.6334 40.3897L16.965 37.9632L17.2734 37.3461L17.109 37.2639L16.307 38.8064L16.4715 38.8887Z" fill="#1D1D1B"/>
<path d="M34.4456 19.1249L35.1244 18.6725L37.2015 21.6751L32.8003 20.0504L31.3814 21.0375L31.4842 21.202L32.0395 20.7907L34.9186 24.9245L34.3426 25.3152L34.466 25.4798L35.9056 24.4721L35.7822 24.3281L35.1036 24.8009L32.3273 20.8113H32.3479L38.2089 22.9706L38.3119 22.8677L35.3093 18.5491L35.8646 18.1378L35.7617 17.9939L34.3427 18.981L34.4456 19.1249Z" fill="#1D1D1B"/>
<path d="M13.6128 45.1814L13.8804 44.5235L18.5281 46.4357L18.2608 47.094L18.4253 47.1765L19.289 45.0584L19.1245 44.9967L18.8572 45.6545L14.2093 43.7214L14.4766 43.0632L14.3121 43.0015L13.4278 45.0994L13.6128 45.1814Z" fill="#1D1D1B"/>
<path d="M42.4658 14.6631L43.1857 14.3341L43.6586 18.4883L40.8204 15.4445L41.5199 15.1155L41.4374 14.951L39.3605 15.9176L39.4428 16.1027L39.9979 15.8353L43.8641 19.866L44.0082 19.8043L43.4116 14.2106L43.926 13.9638L43.8438 13.7993L42.4039 14.4985L42.4658 14.6631Z" fill="#1D1D1B"/>
<path d="M49.2316 17.4395L48.1417 17.8097L47.3191 15.5064L47.7098 15.383C48.5324 15.0951 48.6557 15.383 48.9849 16.2056H49.1904L48.3472 13.7583H48.1416C48.4092 14.5191 48.4709 14.8483 47.6276 15.1362L47.3192 15.2801L46.5378 13.0797L46.8873 12.9563C48.512 12.3805 48.8205 12.4216 49.4785 13.6144H49.6634L49.0671 12.072L44.9542 13.491V13.6761L45.6327 13.4499L47.3191 18.0974L46.6403 18.3238V18.5089L50.9384 17.0077L50.3833 15.2391H50.1981C50.4862 16.4524 50.3214 17.0694 49.2316 17.4395Z" fill="#1D1D1B"/>
<path d="M107.246 36.7295L106.588 35.7835L108.644 34.385L108.87 34.714C109.385 35.4338 109.199 35.6188 108.418 36.1741L108.541 36.3592L110.598 34.8785L110.474 34.6934C109.796 35.1664 109.508 35.3104 108.994 34.5906L108.768 34.2615L110.681 32.9248L110.886 33.2127C111.873 34.6317 111.935 34.9402 110.886 35.8862L110.989 36.0507L112.326 35.0636L109.837 31.5059L109.693 31.6087L110.105 32.1845L105.992 35.0636L105.58 34.4878L105.436 34.5906L108.048 38.3129L109.591 37.3052L109.467 37.1407C108.603 37.655 107.924 37.6756 107.246 36.7295Z" fill="#1D1D1B"/>
<path d="M55.36 14.5391C55.0312 13.3877 54.6608 13.326 53.5298 13.4494C54.2086 13.2026 54.7019 12.8119 54.4964 11.9687C54.2908 11.1255 53.5505 10.8581 52.6043 11.0844L50.5479 11.5985V11.7836L51.2471 11.6191L52.3369 16.4519L51.6377 16.6164V16.8015L53.8385 16.2874V16.1023L53.1804 16.2462L52.6043 13.7784L53.0773 13.6756C54.0235 13.4493 54.2497 13.6756 54.5376 14.6833C54.8255 15.691 54.9902 16.0405 55.8949 15.8349L56.4296 15.7115V15.5264H56.2445C55.7303 15.691 55.5451 15.3207 55.36 14.5391ZM52.5428 13.5728L52.0285 11.3723H52.4192C53.1802 11.1873 53.5094 11.5368 53.6738 12.2361C53.8383 12.9353 53.6738 13.3877 53.0571 13.5522L52.5428 13.5728Z" fill="#1D1D1B"/>
<path d="M57.1494 11.2083C57.1493 10.9659 57.2441 10.7333 57.4131 10.5611C57.5829 10.3878 57.8128 10.288 58.0541 10.283C58.7533 10.283 59.2469 10.5297 59.5347 11.3729H59.7406L59.5347 10.2006C59.0762 10.0568 58.5937 10.0078 58.116 10.0567C57.9035 10.0641 57.6947 10.1149 57.5022 10.2061C57.3104 10.2965 57.1389 10.4256 56.9983 10.5854C56.8577 10.7452 56.7509 10.9324 56.6844 11.1355C56.6187 11.3377 56.595 11.5514 56.6148 11.7633C56.8613 13.6144 59.6995 12.7096 59.8843 14.1491C59.8843 14.8689 59.4114 15.2802 58.7945 15.3625C58.3757 15.3931 57.9607 15.2639 57.6316 15.0004C57.3044 14.7385 57.0879 14.3607 57.0259 13.9435H56.8202L57.0668 15.4447C57.5996 15.6077 58.1614 15.6499 58.7122 15.5681C58.9432 15.5553 59.1694 15.4964 59.3779 15.395C59.5863 15.2935 59.7729 15.1514 59.9268 14.9769C60.0797 14.8035 60.1967 14.6008 60.2707 14.3809C60.3447 14.161 60.3743 13.9283 60.3577 13.6966C60.1106 11.6196 57.3138 12.5451 57.1494 11.2083Z" fill="#1D1D1B"/>
<path d="M97.0249 20.5649C97.1049 20.4644 97.2044 20.3816 97.3174 20.3216C97.4304 20.2616 97.5543 20.2256 97.6816 20.216C97.8089 20.2063 97.9368 20.2232 98.0573 20.2655C98.1779 20.3079 98.2886 20.3748 98.3825 20.4621C98.6547 20.6655 98.8388 20.9672 98.8962 21.3044C98.9537 21.6416 98.8801 21.9881 98.6909 22.2718L98.8553 22.3952L99.5134 21.4081C99.2817 20.9848 98.9667 20.6139 98.5879 20.3182C98.428 20.1772 98.2414 20.0703 98.0396 20.0041C97.8377 19.9379 97.6247 19.9137 97.4133 19.9329C97.2019 19.9521 96.9965 20.0144 96.8096 20.1159C96.6227 20.2175 96.458 20.3562 96.3255 20.5238C95.2154 22.0252 97.8889 23.3412 97.0456 24.5135C96.9487 24.632 96.8287 24.7291 96.693 24.7987C96.4881 24.904 96.2561 24.943 96.0285 24.9104C95.8009 24.8777 95.5887 24.775 95.4209 24.6163C95.0931 24.3551 94.878 23.976 94.8205 23.5582C94.763 23.1404 94.8677 22.7163 95.1125 22.3747L94.9481 22.2513L94.0841 23.5057C94.357 23.9967 94.7368 24.4187 95.1947 24.7396C95.5534 25.0418 96.0151 25.1895 96.4805 25.1511C96.9458 25.1126 97.3777 24.891 97.683 24.534C98.8758 22.8888 96.2231 21.6343 97.0249 20.5649Z" fill="#1D1D1B"/>
<path d="M77.2415 10.9815L77.9407 11.146L76.7684 16.0405L76.0896 15.876L76.0485 16.061L78.2697 16.5752L78.3108 16.3901L77.6119 16.2256L78.7633 11.331L79.4629 11.4955L79.504 11.331L77.2826 10.7964L77.2415 10.9815Z" fill="#1D1D1B"/>
<path d="M63.7714 11.2495H63.9974C63.9974 10.5502 64.3263 9.74823 65.1077 9.76881H65.8278V14.7456H65.0053V14.9307H67.5347V14.7867H66.6914V9.80992H67.3494C68.1105 9.80992 68.3982 10.6119 68.419 11.3112H68.6452V9.5837L63.7714 9.52197V11.2495Z" fill="#1D1D1B"/>
<path d="M86.9894 15.6709H87.1949C87.5241 15.0539 88.1411 14.4576 88.8403 14.8072L89.4365 15.0951L87.2567 19.6607L86.4957 19.2905V19.455L88.7581 20.5655V20.401L88.0172 20.0308L90.1974 15.5476L90.7733 15.8355C91.4725 16.1646 91.3901 17.0077 91.1022 17.6658H91.3081L92.0687 16.103L87.7504 14.0464L86.9894 15.6709Z" fill="#1D1D1B"/>
<path d="M114.403 42.0558V42.2617C115.061 42.0147 115.904 41.9735 116.213 42.6935L116.459 43.2897L111.976 45.2435L111.647 44.4828H111.482L112.47 46.8063H112.634L112.305 46.0456L116.891 44.0917L117.138 44.6882C117.446 45.4082 116.829 45.9837 116.192 46.2925V46.4979L117.775 45.8197L115.904 41.3979L114.403 42.0558Z" fill="#1D1D1B"/>
<path d="M72.7377 10.0155L72.717 10.2006L73.478 10.2828L72.1 12.3599L71.1746 10.0155L71.956 10.1184L71.9767 9.93326L69.591 9.64526L69.5707 9.83037L70.1875 9.91263L71.2979 12.545L71.0101 15.0745L70.3108 14.9717L70.2697 15.1774L72.5524 15.4241V15.239L71.8736 15.1568L72.1617 12.6272L73.7245 10.324L74.3005 10.3857L74.3209 10.2006L72.7377 10.0155Z" fill="#1D1D1B"/>
<path d="M102.413 30.6631L106.176 27.3725L105.704 26.735L105.848 26.6116L107.39 28.3596L107.246 28.483L106.773 27.9485L103.009 31.2595L103.483 31.7942L103.318 31.9381L101.776 30.1901L101.92 30.0461L102.413 30.6631ZM107.924 29.059L108.871 30.1284L108.706 30.2518L108.357 29.8611H105.868L105.025 33.6451L105.272 33.933L105.107 34.0769L103.791 32.5757L103.956 32.4316L104.264 32.7812L105.025 29.6347H108.192L107.781 29.1618L107.924 29.059Z" fill="#1D1D1B"/>
<path d="M69.4473 115.761L70.1465 115.699L70.6605 120.656L69.9613 120.738L69.982 120.923L72.2237 120.697L72.2029 120.512L71.5037 120.573L71.0101 115.617L71.7093 115.555L71.6889 115.35L69.4265 115.576L69.4473 115.761Z" fill="#1D1D1B"/>
<path d="M103.03 99.2059L103.483 98.6711L107.266 101.941L106.794 102.476L106.938 102.578L108.418 100.871L108.274 100.748L107.822 101.283L104.038 98.0338L104.49 97.499L104.367 97.3755L102.886 99.1029L103.03 99.2059Z" fill="#1D1D1B"/>
<path d="M114.094 79.1343L114.279 78.456L119.112 79.6896L118.927 80.3679L119.112 80.4296L119.667 78.2292L119.482 78.1879L119.317 78.8671L114.484 77.6333L114.67 76.9338L114.484 76.8926L113.909 79.0931L114.094 79.1343Z" fill="#1D1D1B"/>
<path d="M80.9021 113.478L81.6627 113.232L82.7119 116.728H82.6911L79.0512 113.828L77.4059 114.321L77.4678 114.507L78.1257 114.301L79.5448 119.072L78.8867 119.277L78.9482 119.463L80.614 118.948L80.5525 118.784L79.7711 119.01L78.3931 114.404H78.4135L83.267 118.25L83.3903 118.188L81.889 113.17L82.5472 112.985L82.4854 112.8L80.8403 113.293L80.9021 113.478Z" fill="#1D1D1B"/>
<path d="M33.7257 104.656L34.24 105.088L32.7592 106.897L30.9701 105.396L32.4508 103.607L32.9649 104.039L33.0883 103.895L31.3607 102.476L31.2579 102.62L31.7926 103.072L28.605 106.918L28.0703 106.466L27.9469 106.61L29.6743 108.028L29.7977 107.885L29.263 107.453L30.8466 105.54L32.6561 107.021L31.0728 108.933L30.5381 108.501L30.4353 108.645L32.1422 110.064L32.2656 109.92L31.7309 109.489L34.8979 105.643L35.4532 106.095L35.5561 105.951L33.8491 104.511L33.7257 104.656Z" fill="#1D1D1B"/>
<path d="M16.3068 76.8309L16.4508 77.4892L14.1886 77.9828L13.695 75.7206L15.9572 75.2064L16.1011 75.8847L16.2862 75.8434L15.7927 73.6638L15.6076 73.7051L15.7721 74.3839L10.898 75.453L10.7542 74.7745L10.5691 74.8158L11.0421 76.9957L11.2272 76.9544L11.0832 76.2961L13.51 75.7618L14.0035 78.0236L11.5974 78.5584L11.4534 77.9005L11.2683 77.9417L11.7415 80.1215L11.9266 80.0803L11.7823 79.4015L16.6357 78.3323L16.8002 79.0106L16.9853 78.9694L16.4919 76.7898L16.3068 76.8309Z" fill="#1D1D1B"/>
<path d="M61.4475 115.514H61.3035L59.103 120.614H58.4652V120.799L60.131 120.943V120.758H59.3496L60.0285 119.113L61.4268 119.237L61.7972 120.964H61.0154V121.149L63.4218 121.355V121.17H62.7222L61.4475 115.514ZM60.131 118.763L60.9332 116.912L61.365 118.969L60.131 118.763Z" fill="#1D1D1B"/>
<path d="M37.9621 107.473H37.8388L33.4789 110.908L32.9236 110.476V110.64L34.3221 111.566V111.401L33.6846 111.051L35.0624 109.941L36.2347 110.702L35.7411 112.388L35.0831 111.956V112.121L37.1396 113.458L37.0367 113.108L36.4607 112.738L37.9621 107.473ZM35.2682 109.694L36.8516 108.46L36.2963 110.393L35.2682 109.694Z" fill="#1D1D1B"/>
<path d="M90.5058 108.995H90.3825L91.4517 114.445L90.8965 114.754V114.918L92.3569 114.095V113.931L91.6781 114.322L91.3285 112.594L92.5419 111.915L93.8169 113.129L93.1381 113.52V113.684L95.1946 112.491V112.327L94.5983 112.677L90.5058 108.995ZM91.2461 112.409L90.8554 110.353L92.3158 111.731L91.2461 112.409Z" fill="#1D1D1B"/>
<path d="M23.0112 92.6458L23.4431 93.3448L20.3583 95.2369H20.3377L22.2092 90.9591L21.3043 89.4993L21.1399 89.6018L21.51 90.1777L17.253 92.81L16.9034 92.2139L16.7389 92.3164L17.6438 93.7973L17.8083 93.6944L17.3764 92.9953L21.4689 90.4659L21.4894 90.4861L19.0011 96.1624L19.1245 96.2649L23.5665 93.5301L23.9367 94.1262L24.0807 94.0237L23.1758 92.5428L23.0112 92.6458Z" fill="#1D1D1B"/>
<path d="M113.703 92.8515L113.128 93.8384L111.071 92.5428L111.277 92.1933C111.708 91.4325 111.955 91.5354 112.757 91.9878L112.86 91.8026L110.639 90.4864L110.516 90.6717C111.215 91.0829 111.462 91.2884 111.03 92.0496L110.824 92.3991L108.768 91.2266L108.953 90.9183C109.816 89.4375 110.063 89.273 111.338 89.7256V89.5609L109.899 88.7795L107.842 92.502H108.007L108.357 91.8849L112.716 94.5996L112.367 95.2163H112.531L114.793 91.309L113.231 90.4864H113.128C113.971 91.2472 114.279 91.8643 113.703 92.8515Z" fill="#1D1D1B"/>
<path d="M28.3373 100.77C28.4308 100.685 28.5401 100.621 28.6586 100.581C28.7772 100.54 28.9026 100.524 29.0274 100.534C29.1522 100.544 29.2737 100.579 29.3849 100.637C29.496 100.695 29.5944 100.775 29.6741 100.873C29.9114 101.117 30.0443 101.445 30.0443 101.788C30.0443 102.13 29.9114 102.459 29.6741 102.703L29.8181 102.847L30.6201 101.983C30.455 101.533 30.2034 101.121 29.8797 100.77C29.7351 100.62 29.5624 100.501 29.3717 100.42C29.181 100.339 28.9761 100.297 28.7692 100.297C28.5623 100.297 28.3575 100.339 28.1667 100.42C27.976 100.501 27.8033 100.62 27.6587 100.77C26.3425 102.086 28.7692 103.772 27.6587 104.883C27.5466 104.985 27.4147 105.063 27.2713 105.112C27.1279 105.161 26.9761 105.179 26.8254 105.165C26.6748 105.152 26.5285 105.107 26.3959 105.033C26.2632 104.96 26.147 104.859 26.0546 104.738C25.7715 104.435 25.6138 104.034 25.6138 103.618C25.6138 103.201 25.7715 102.8 26.0546 102.497L25.9107 102.353L24.8618 103.464C25.0567 103.986 25.3661 104.457 25.7667 104.841C26.0713 105.194 26.5011 105.411 26.9631 105.446C27.425 105.481 27.8818 105.33 28.2345 105.026C29.7975 103.443 27.3914 101.798 28.3373 100.77Z" fill="#1D1D1B"/>
<path d="M43.1236 110.682L43.7404 110.99L42.6918 113.067L40.5943 112.018L41.6638 109.941L42.2601 110.25L42.3423 110.085L40.3476 109.078L40.2654 109.242L40.9028 109.551L38.6408 114.013L38.024 113.684L37.9211 113.849L39.916 114.856L39.9982 114.692L39.4016 114.404L40.5324 112.183L42.6096 113.232L41.4786 115.453L40.8824 115.144L40.7998 115.309L42.7947 116.317L42.8769 116.152L42.2396 115.823L44.5017 111.381L45.1185 111.689L45.2007 111.525L43.2061 110.517L43.1236 110.682Z" fill="#1D1D1B"/>
<path d="M85.8583 111.627L86.4751 111.36L87.4003 113.499L85.2617 114.404L84.3362 112.286L84.953 112.018L84.8917 111.833L82.8349 112.718L82.8968 112.882L83.5548 112.615L85.5291 117.201L84.871 117.468L84.9532 117.653L87.0097 116.769L86.9275 116.604L86.3106 116.872L85.3237 114.589L87.4624 113.664L88.4497 115.946L87.8329 116.214L87.8943 116.378L89.9508 115.494L89.8889 115.329L89.2309 115.617L87.2567 111.031L87.9147 110.743L87.8325 110.579L85.7757 111.463L85.8583 111.627Z" fill="#1D1D1B"/>
<path d="M113.703 82.8156C113.586 82.7692 113.48 82.6991 113.391 82.6096C113.302 82.52 113.232 82.413 113.185 82.2951C113.139 82.1776 113.117 82.0518 113.122 81.9255C113.126 81.7992 113.156 81.6752 113.21 81.5612C113.436 80.9029 113.97 80.6151 114.834 80.7179V80.5328L113.765 80.2039C113.433 80.5524 113.174 80.9649 113.004 81.4169C112.879 81.7049 112.844 82.0249 112.906 82.3334C112.967 82.6418 113.12 82.9238 113.346 83.1409C113.496 83.2862 113.673 83.3992 113.868 83.4732C115.616 84.0698 116.068 81.1497 117.426 81.6021C117.568 81.655 117.697 81.7373 117.806 81.8438C117.914 81.9503 118 82.0785 118.057 82.2204C118.113 82.3617 118.138 82.5134 118.132 82.6655C118.126 82.8177 118.089 82.9668 118.022 83.1032C117.864 83.4953 117.564 83.8114 117.182 83.9863C116.799 84.1623 116.364 84.1848 115.965 84.0494V84.2346L117.426 84.6665C117.81 84.2643 118.098 83.779 118.269 83.2474C118.348 83.0328 118.384 82.8045 118.375 82.5757C118.366 82.3469 118.313 82.1222 118.217 81.9144C118.023 81.493 117.672 81.1664 117.24 81.0058C115.369 80.3682 114.978 83.2474 113.703 82.8156Z" fill="#1D1D1B"/>
<path d="M116.315 76.7492V76.5232C115.637 76.3791 114.896 75.9473 115.04 75.1864L115.143 74.5488L119.996 75.4125L119.852 76.2149H120.037L120.469 73.7468H120.284L120.14 74.5694L115.287 73.7056L115.39 73.0683C115.513 72.3072 116.336 72.1634 117.035 72.2458L117.241 71.9782L115.554 71.6904L114.731 76.3791L116.315 76.7492Z" fill="#1D1D1B"/>
<path d="M117.549 66.6924V66.4663C116.85 66.4663 116.068 66.1786 116.048 65.4174V64.7801L120.984 64.6772V65.4997H121.169V62.9909H120.984V63.7517L116.048 63.8546V63.2169C116.048 62.4562 116.809 62.1478 117.508 62.086V61.8596H115.801V66.631L117.549 66.6924Z" fill="#1D1D1B"/>
<path d="M97.4364 104.492L98.0742 103.998L100.234 106.754C100.789 107.453 101.035 108.008 99.9251 108.81C98.815 109.612 98.5263 109.324 97.8683 108.563L95.668 105.767L96.2435 105.314L96.1202 105.17L94.3311 106.589L94.4545 106.733L94.9892 106.301L97.2512 109.18C97.868 109.962 98.4029 110.25 99.8221 109.18C101.241 108.111 101.035 107.453 100.398 106.651L98.1975 103.833L98.691 103.443L98.7321 103.34L97.416 104.368L97.4364 104.492Z" fill="#1D1D1B"/>
<path d="M101.426 100.851L102.002 100.275L104.531 102.866V102.887L99.9658 102.023L98.7322 103.216L98.8555 103.36L99.3488 102.866L102.845 106.445L102.351 106.918L102.475 107.041L103.709 105.828L103.585 105.704L103.009 106.28L99.6367 102.846V102.825L105.745 103.977L105.806 103.854L102.166 100.131L102.66 99.6377L102.516 99.5142L101.282 100.728L101.426 100.851Z" fill="#1D1D1B"/>
<path d="M115.842 61.4693L115.76 60.7498L120.737 60.2562L120.799 60.9552L120.984 60.9347L120.757 58.6931L120.572 58.7137L120.634 59.4131L115.677 59.9065L115.616 59.207L115.431 59.2275L115.657 61.4691L115.842 61.4693Z" fill="#1D1D1B"/>
<path d="M106.876 94.2705L107.328 93.6534L109.755 97.0469H109.734L105.806 95.7513L106.259 95.1342L106.115 95.0313L104.778 96.8616L104.943 96.9851L105.292 96.4709L110.578 98.1366L110.68 98.0135L107.493 93.4479L107.801 92.9955L107.657 92.8926L106.732 94.1676L106.876 94.2705Z" fill="#1D1D1B"/>
<path d="M120.839 69.0997V70.2306L118.412 70.0454V69.6341C118.412 68.7704 118.721 68.7293 119.667 68.7908V68.565L117.117 68.3797V68.6061C117.919 68.6061 118.248 68.7498 118.186 69.6135V70.0248L115.801 69.9223V69.5724C115.924 67.8656 116.068 67.516 117.425 67.516V67.3105H115.78L115.472 71.5879H115.657V70.889L120.634 71.259V71.958H120.819L121.148 67.4542L119.318 67.2488V67.4542C120.387 67.5365 120.942 67.8655 120.839 69.0997Z" fill="#1D1D1B"/>
<path d="M15.6693 89.6436L15.1758 88.6151L17.3762 87.5663L17.5409 87.9364C17.9111 88.7182 17.7054 88.8825 16.8623 89.2937V89.4996L19.2684 88.4301V88.2245C18.5279 88.5738 18.2194 88.6563 17.8493 87.875L17.6643 87.5045L19.7208 86.4971L19.8853 86.826C20.6256 88.3682 20.6256 88.677 19.5357 89.4584V89.6436L20.996 88.903L19.1448 85.0369H18.9803L19.2887 85.6742L14.785 87.7309L14.4148 87.2167H14.2503L16.204 91.3298L17.8902 90.6099V90.425C16.8415 90.7745 16.1629 90.6716 15.6693 89.6436Z" fill="#1D1D1B"/>
<path d="M115.842 85.7976C114.732 85.3863 114.464 85.6329 113.785 86.5996C113.991 85.9006 113.991 85.2835 113.189 84.9543C112.387 84.6252 111.729 84.9543 111.359 85.921L110.475 87.9773H110.639L110.927 87.3398L115.493 89.3967L115.204 90.0337H115.369L116.274 87.9775H116.11L115.842 88.5946L113.538 87.5868L113.724 87.1549C114.114 86.2704 114.464 86.25 115.389 86.5996C116.315 86.9491 116.726 87.052 117.096 86.2089L117.323 85.7152H117.158V85.8799C116.973 86.1883 116.582 86.0854 115.842 85.7976ZM113.395 87.4633L111.338 86.5584L111.503 86.2089C111.811 85.5094 112.284 85.4481 112.922 85.7152C113.559 85.9824 113.868 86.3735 113.601 86.9696L113.395 87.4633Z" fill="#1D1D1B"/>
<path d="M48.4091 116.975C48.7587 115.844 48.4091 115.597 47.4837 115.083C48.1829 115.247 48.7999 115.186 49.0876 114.383C49.3753 113.581 48.9024 112.944 47.9977 112.615L45.9412 111.854V112.019L46.5993 112.265L44.8925 116.954L44.2344 116.707V116.893L46.2909 117.653V117.489L45.6532 117.221L46.5171 114.856L46.9693 115.021C47.8744 115.35 47.9155 115.72 47.6274 116.646C47.3392 117.571 47.2778 118.024 48.1418 118.332L48.6558 118.517V118.332H48.4706C48.1007 118.126 48.1828 117.736 48.4091 116.975ZM46.5993 114.63L47.3603 112.574L47.7303 112.718C48.4502 112.985 48.5528 113.458 48.3063 114.116C48.0598 114.774 47.71 115.103 47.0931 114.877L46.5993 114.63Z" fill="#1D1D1B"/>
<path d="M14.4149 70.579C14.5403 70.5674 14.6668 70.5823 14.7862 70.6226C14.9056 70.663 15.0155 70.7279 15.1088 70.8133C15.2016 70.898 15.2756 71.0015 15.3262 71.117C15.3767 71.2326 15.4027 71.3576 15.4023 71.4839C15.4023 72.1833 15.1347 72.6564 14.3123 72.9441V73.1496L15.464 72.9647C15.6067 72.5064 15.6556 72.0236 15.6079 71.5456C15.6032 71.3337 15.5549 71.1251 15.4661 70.933C15.3769 70.7404 15.2494 70.5684 15.0915 70.4278C14.9326 70.2867 14.7469 70.1799 14.5457 70.1139C14.3444 70.048 14.132 70.0242 13.9214 70.0442C12.0911 70.2705 12.9548 73.0882 11.5152 73.273C10.7954 73.273 10.4047 72.7794 10.343 72.1627C10.3081 71.7438 10.4364 71.3277 10.7006 71.003C10.9664 70.6764 11.3465 70.4657 11.7619 70.4147V70.2089L10.3015 70.4555C10.1304 70.9858 10.0813 71.5486 10.1579 72.101C10.1687 72.3329 10.2252 72.5604 10.3243 72.7699C10.4234 72.9794 10.563 73.1668 10.7348 73.3209C10.9078 73.4761 11.1093 73.5954 11.3279 73.6719C11.5465 73.7483 11.7779 73.7805 12.0088 73.7666C13.9831 73.52 13.0988 70.7436 14.4149 70.579Z" fill="#1D1D1B"/>
<path d="M74.6912 115.083L75.3904 114.939L76.398 119.813L75.7196 119.956L75.7607 120.142L77.9612 119.689L77.9201 119.504L77.2413 119.648L76.2129 114.754L76.9124 114.61L76.8709 114.445L74.6501 114.898L74.6912 115.083Z" fill="#1D1D1B"/>
<path d="M51.0826 113.848L51.7614 114.033L50.4453 118.845L49.7457 118.66L49.7046 118.825L51.8848 119.421L51.9463 119.257L51.2471 119.051L52.5632 114.26L53.2624 114.444L53.3035 114.26L51.1237 113.663L51.0826 113.848Z" fill="#1D1D1B"/>
<path d="M22.7643 95.1754L22.9083 95.3606C23.4842 94.949 24.2861 94.7024 24.7591 95.3606L25.1498 95.8744L21.2011 98.8155L20.7078 98.1572L20.5638 98.2807L22.0855 100.337L22.2295 100.235L21.736 99.5763L25.6638 96.5739L26.0547 97.088C26.5277 97.7047 26.0547 98.4042 25.5406 98.8566L25.6845 99.0415L27.0419 97.9929L24.1422 94.2087L22.7643 95.1754Z" fill="#1D1D1B"/>
<path d="M13.7361 59.043V59.2694C14.4353 59.2694 15.1964 59.7012 15.1345 60.462V61.0997L10.2196 60.7091V59.8865H10.0346L9.82889 62.3747H10.014V61.5522L14.9291 61.9429V62.5802C14.9291 63.3414 14.0653 63.5674 13.3661 63.5468V63.7526L15.073 63.8761L15.4432 59.1253L13.7361 59.043Z" fill="#1D1D1B"/>
<path d="M12.605 82.26L17.2733 80.6147L17.0473 79.957H17.2324L17.9932 82.1369H17.8082L17.582 81.4787L12.8931 83.1241L13.1193 83.782H12.9343L12.1733 81.6021H12.3584L12.605 82.26ZM18.2812 82.8154L18.7542 84.152H18.5689L18.4044 83.679L16.1013 82.7536L13.9214 85.9207L14.0448 86.2908H13.8597L13.2016 84.4197H13.3867L13.5512 84.8721L15.4021 82.2599L18.3017 83.453L18.0961 82.8771L18.2812 82.8154Z" fill="#1D1D1B"/>
<path d="M15.2374 66.8572C15.2234 66.5191 15.1389 66.1878 14.9895 65.8849C14.8394 65.5811 14.6281 65.3124 14.3691 65.096C14.1086 64.8788 13.8064 64.7185 13.4815 64.6253C13.1566 64.532 12.8162 64.5078 12.4816 64.5541C12.1516 64.5328 11.8209 64.5807 11.5102 64.6947C11.1994 64.8087 10.9154 64.9865 10.6758 65.2167C10.4378 65.4454 10.25 65.722 10.1245 66.0287C9.99895 66.3354 9.93854 66.6653 9.94716 66.9971C9.95577 67.3288 10.0332 67.6551 10.1745 67.9547C10.3157 68.2543 10.5177 68.5206 10.7672 68.7364C11.0183 68.9539 11.3112 69.1166 11.6274 69.2144C11.9437 69.3122 12.2765 69.3429 12.605 69.3047C12.9418 69.3336 13.2808 69.2915 13.6006 69.1812C13.9204 69.071 14.2142 68.8948 14.4632 68.664C14.7106 68.434 14.9076 68.1542 15.0414 67.8425C15.1747 67.5317 15.2415 67.1959 15.2374 66.8572ZM11.1244 68.235C10.958 68.2262 10.7962 68.1767 10.6529 68.0907C10.5096 68.0047 10.3891 67.8849 10.3018 67.7414C10.1692 67.509 10.0917 67.2485 10.0756 66.9807C10.0461 66.8158 10.051 66.6464 10.0899 66.4835C10.1289 66.3206 10.201 66.1677 10.3018 66.0346C10.5234 65.8247 10.8033 65.6884 11.1038 65.6439C11.5192 65.5814 11.9383 65.547 12.3583 65.541C12.9117 65.4759 13.4707 65.4759 14.0241 65.541C14.1627 65.5637 14.2951 65.6158 14.4123 65.6941C14.5291 65.7717 14.6281 65.8738 14.7026 65.9934C14.8366 66.2318 14.9074 66.501 14.9082 66.7752C14.9232 67.0392 14.8663 67.3023 14.7437 67.5359C14.6208 67.7685 14.4148 67.945 14.1677 68.0295C13.6855 68.1629 13.1868 68.2252 12.687 68.2144C12.147 68.2686 11.6035 68.2755 11.0623 68.235L11.1244 68.235Z" fill="#1D1D1B"/>
<path d="M53.8794 119.668L54.7637 114.836L54.0853 114.712V114.506L56.3473 114.918C56.8059 114.987 57.2464 115.148 57.6431 115.391C58.0094 115.659 58.277 116.042 58.4037 116.481C58.5711 116.977 58.6066 117.509 58.5067 118.023C58.4182 118.552 58.1827 119.044 57.8279 119.442C57.5368 119.788 57.1502 120.039 56.7176 120.162C56.2763 120.251 55.822 120.251 55.3807 120.162L53.139 119.751V119.545L53.8794 119.668ZM55.6481 114.979L54.7845 119.833L55.4425 119.956C55.7224 119.992 56.0056 119.992 56.2854 119.956C56.5231 119.924 56.7417 119.807 56.9022 119.627C57.1014 119.402 57.249 119.135 57.3344 118.846C57.4681 118.422 57.5712 117.989 57.6428 117.55C57.7487 117.055 57.7487 116.544 57.6428 116.049C57.5827 115.762 57.4127 115.51 57.1698 115.35C56.8904 115.215 56.5921 115.125 56.2854 115.082L55.6481 114.979Z" fill="#1D1D1B"/>
<path d="M68.1515 117.221H67.884C67.8409 117.024 67.779 116.831 67.699 116.645C67.6056 116.367 67.4251 116.126 67.1847 115.96C66.9431 115.793 66.6549 115.709 66.3625 115.72C66.2022 115.709 66.0413 115.731 65.8894 115.784C65.7375 115.837 65.5977 115.92 65.4781 116.028C65.2899 116.231 65.1742 116.492 65.1492 116.769C65.1211 117.187 65.1211 117.606 65.1492 118.023C65.1395 118.67 65.1808 119.316 65.2726 119.956C65.3168 120.229 65.4553 120.477 65.6633 120.656C65.8684 120.816 66.1239 120.896 66.3828 120.882C66.5856 120.878 66.784 120.821 66.9588 120.717C67.0381 120.672 67.1068 120.61 67.1603 120.535C67.2133 120.461 67.2499 120.376 67.2673 120.286C67.2973 120.005 67.2973 119.723 67.2673 119.442V119.278H66.5271V119.072H68.9126V119.278H68.2958C68.3283 119.555 68.2907 119.836 68.1866 120.094C68.0817 120.353 67.9141 120.582 67.699 120.759C67.3265 121.049 66.8736 121.214 66.4036 121.232C66.0834 121.237 65.7662 121.168 65.4772 121.029C65.1881 120.89 64.935 120.684 64.7379 120.429C64.2883 119.887 64.0409 119.203 64.0387 118.496C63.9899 117.754 64.2172 117.021 64.676 116.44C64.8659 116.173 65.1157 115.956 65.4048 115.807C65.6948 115.657 66.0158 115.577 66.3417 115.576C66.8073 115.584 67.2565 115.751 67.6168 116.049C67.7405 116.049 67.8227 115.905 67.8227 115.905H68.0283L68.1515 117.221Z" fill="#1D1D1B"/>
</g>
<defs>
<clipPath id="clip0_17_21">
<rect width="131" height="131" fill="white"/>
</clipPath>
</defs>
</svg>
