<svg width="38" height="34" viewBox="0 0 38 34" fill="none" xmlns="http://www.w3.org/2000/svg">
<path d="M17.882 9.58242L21.4623 10.532C21.5839 10.5607 21.6927 10.6289 21.7718 10.7262C21.8509 10.8234 21.8958 10.9443 21.8997 11.0699C21.8997 11.3754 21.6298 11.6277 21.298 11.6277H18.9494C18.6964 11.627 18.4458 11.5774 18.2112 11.4816C17.8655 11.3355 17.4671 11.3687 17.2019 11.6145L15.9484 12.7766C15.8905 12.8276 15.8404 12.8872 15.8 12.9532C15.7483 13.0386 15.7138 13.1336 15.6987 13.2325C15.6835 13.3314 15.688 13.4323 15.7118 13.5295C15.7356 13.6266 15.7782 13.7181 15.8373 13.7986C15.8964 13.8791 15.9707 13.947 16.056 13.9984C16.7501 14.4178 17.5273 14.6785 18.3326 14.7621V15.9375C18.3326 16.5219 18.8492 17 19.4785 17H20.6244C21.2545 17 21.771 16.5219 21.771 15.9375V14.7687C23.9434 14.5297 25.5868 12.7102 25.3005 10.5852C25.0927 9.05781 23.8188 7.84258 22.2289 7.41758L18.6486 6.46797C18.527 6.43935 18.4182 6.3711 18.3391 6.27383C18.26 6.17656 18.2151 6.05572 18.2112 5.93008C18.2112 5.62461 18.4811 5.37227 18.8129 5.37227H21.1615C21.4154 5.37266 21.667 5.42226 21.9023 5.51836C22.2473 5.66445 22.6465 5.63125 22.9117 5.38555L24.1651 4.22344C24.2212 4.17344 24.2694 4.11524 24.3083 4.05078C24.3604 3.96536 24.3953 3.87039 24.4108 3.77133C24.4263 3.67227 24.4222 3.57111 24.3986 3.47367C24.3751 3.37624 24.3326 3.28446 24.2736 3.20366C24.2146 3.12285 24.1403 3.05462 24.0549 3.00289C23.3605 2.58356 22.5831 2.32286 21.7776 2.23922V1.0625C21.7776 0.478125 21.2617 0 20.6317 0H19.4858C18.8558 0 18.3399 0.478125 18.3399 1.0625V2.23125C16.1701 2.47031 14.5235 4.28984 14.8098 6.41484C15.0169 7.94219 16.2948 9.15742 17.882 9.58242ZM37.2913 21.7879C36.5129 21.0773 35.299 21.1238 34.481 21.7879L28.3853 26.6953C27.637 27.2996 26.7057 27.6277 25.7464 27.625H17.9441C17.6641 27.625 17.3956 27.5131 17.1977 27.3138C16.9997 27.1145 16.8885 26.8443 16.8885 26.5625C16.8885 26.2807 16.9997 26.0105 17.1977 25.8112C17.3956 25.6119 17.6641 25.5 17.9441 25.5H23.1089C24.1578 25.5 25.1349 24.7762 25.3024 23.7336C25.3231 23.6139 25.3333 23.4925 25.3328 23.371C25.3317 22.8081 25.1089 22.2686 24.7131 21.871C24.3173 21.4733 23.7809 21.25 23.2217 21.25H12.6664C10.8862 21.2505 9.16035 21.8668 7.77796 22.9958L4.71031 25.5H1.05553C0.775588 25.5 0.507109 25.6119 0.309158 25.8112C0.111208 26.0105 0 26.2807 0 26.5625L0 32.9375C0 33.2193 0.111208 33.4895 0.309158 33.6888C0.507109 33.8881 0.775588 34 1.05553 34H24.5919C25.5509 34.0008 26.4816 33.6729 27.2308 33.0703L37.2075 25.0352C37.4475 24.8419 37.6427 24.5983 37.7795 24.3213C37.9162 24.0443 37.9912 23.7405 37.9993 23.4313C38.0073 23.122 37.9482 22.8148 37.826 22.5309C37.7039 22.2471 37.5216 21.9935 37.292 21.7879H37.2913Z" fill="#0AEB06"/>
</svg>
