<svg width="61" height="61" viewBox="0 0 61 61" fill="none" xmlns="http://www.w3.org/2000/svg">
<path d="M30.5 0C13.6512 0 0 13.6512 0 30.5C0 47.3488 13.6512 61 30.5 61C47.3488 61 61 47.3488 61 30.5C61 13.6512 47.3488 0 30.5 0ZM45.4794 20.895L40.474 44.4833C40.105 46.1558 39.1089 46.5617 37.7192 45.7746L30.0942 40.1542L26.4169 43.6962C26.0111 44.102 25.6667 44.4464 24.8796 44.4464L25.4208 36.6861L39.5516 23.9204C40.1665 23.3792 39.4163 23.0718 38.6046 23.6129L21.1409 34.6077L13.6143 32.2587C11.9786 31.7421 11.9417 30.623 13.9587 29.8359L43.3641 18.4968C44.7292 18.0048 45.9222 18.8288 45.4794 20.895Z" fill="#0AEB06"/>
</svg>
